<svg xmlns="http://www.w3.org/2000/svg" version="1.1" viewBox="0 0 1500 804" width="1500" height="804">
  <g transform="translate(0,0)">
    <text x="750.0" y="36" font-family="Inter" font-size="20" font-weight="600" fill="#2C2A26" text-anchor="middle">Diagramme de classes – Fidélité, Wishlist &amp; Gift Cards</text>
    <text x="750.0" y="56" font-family="Inter" font-size="9.5" font-weight="500" letter-spacing="2.6" fill="#9A8F7D" text-anchor="middle">CLÉOPÂTRE · ESPACE SANTÉ BEAUTÉ</text>
    <rect x="727.0" y="64" width="46" height="2" rx="1" fill="#5B7C99"/>
  </g>
  <g transform="translate(0,84)">

  <defs/>
  <g>
    <g class="cluster" data-qualified-name="PF" id="ent0001" data-source-line="92">
      <rect x="255.50" y="5" width="206" height="549.50" rx="4" ry="4" fill="#FAF7F1" stroke="#D5C7AE" stroke-width="1"/>
      <text x="334.61" y="14.62" font-size="14" fill="#4A443A" xml:space="preserve" style="white-space: pre" font-family="Inter">Fidélité</text>
    </g>
    <g class="cluster" data-qualified-name="PW" id="ent0005" data-source-line="115">
      <rect x="477.50" y="188" width="398" height="199" rx="4" ry="4" fill="#FAF7F1" stroke="#D5C7AE" stroke-width="1"/>
      <text x="650.70" y="197.62" font-size="14" fill="#4A443A" xml:space="preserve" style="white-space: pre" font-family="Inter">Wishlist</text>
    </g>
    <g class="cluster" data-qualified-name="PG" id="ent0008" data-source-line="133">
      <rect x="983.50" y="177" width="296" height="524.50" rx="4" ry="4" fill="#FAF7F1" stroke="#D5C7AE" stroke-width="1"/>
      <text x="1079.42" y="186.62" font-size="14" fill="#4A443A" xml:space="preserve" style="white-space: pre" font-family="Inter">Cartes cadeaux</text>
    </g>
    <g class="cluster" data-qualified-name="PS" id="ent0013" data-source-line="168">
      <rect x="477.50" y="4" width="716" height="140" rx="4" ry="4" fill="#FAF7F1" stroke="#D5C7AE" stroke-width="1"/>
      <text x="806.78" y="13.62" font-size="14" fill="#4A443A" xml:space="preserve" style="white-space: pre" font-family="Inter">Services</text>
    </g>
    <g class="cluster" data-qualified-name="PL" id="ent0017" data-source-line="181">
      <rect x="523.50" y="425" width="230" height="109" rx="4" ry="4" fill="#FAF7F1" stroke="#D5C7AE" stroke-width="1"/>
      <text x="620.93" y="434.62" font-size="14" fill="#4A443A" xml:space="preserve" style="white-space: pre" font-family="Inter">Liens</text>
    </g>
    <g class="entity" data-qualified-name="GMN36" id="ent0037" data-source-line="206">
      <path d="M6,282 L6,337 A4,4 0 0 0 10,341 L235.22,341 A4,4 0 0 0 239.22,337 L239.22,288 L229.22,278 L153.96,278 L315.15,127.09 L145.96,278 L10,278 A4,4 0 0 0 6,282" fill="#FBF8F2" stroke="#DCCFBA" stroke-width="1"/>
      <path d="M229.22,278 L229.22,286 A2,2 0 0 0 231.22,288 L239.22,288 L229.22,278" fill="#FBF8F2" stroke="#DCCFBA" stroke-width="1"/>
      <text x="12" y="289.35" font-size="11" fill="#6E675C" xml:space="preserve" style="white-space: pre" font-family="Inter">Solde fidélité stocké directement</text>
      <text x="12" y="301.35" font-size="11" fill="#6E675C" xml:space="preserve" style="white-space: pre" font-family="Inter">sur User.loyaltyPoints</text>
      <text x="12" y="312.35" font-size="11" fill="#6E675C" xml:space="preserve" style="white-space: pre" font-family="Inter">(mis à jour via LoyaltyTransaction)</text>
      <text x="12" y="320.35" font-size="11" fill="#6E675C" xml:space="preserve" style="white-space: pre" font-family="Inter">award → commande livrée (1 DT = 10 pts)</text>
      <text x="12" y="333.35" font-size="11" fill="#6E675C" xml:space="preserve" style="white-space: pre" font-family="Inter">redemption → points utilisés en réduction</text>
    </g>
    <g class="entity" data-qualified-name="GMN39" id="ent0040" data-source-line="214">
      <path d="M769.50,484 L769.50,519 A4,4 0 0 0 773.50,523 L963.46,523 A4,4 0 0 0 967.46,519 L967.46,490 L957.46,480 L873.45,480 L837.29,371.07 L865.45,480 L773.50,480 A4,4 0 0 0 769.50,484" fill="#FBF8F2" stroke="#DCCFBA" stroke-width="1"/>
      <path d="M957.46,480 L957.46,488 A2,2 0 0 0 959.46,490 L967.46,490 L957.46,480" fill="#FBF8F2" stroke="#DCCFBA" stroke-width="1"/>
      <text x="775.50" y="493.35" font-size="11" fill="#6E675C" xml:space="preserve" style="white-space: pre" font-family="Inter">Le token est une capacité :</text>
      <text x="775.50" y="504.35" font-size="11" fill="#6E675C" xml:space="preserve" style="white-space: pre" font-family="Inter">quiconque possède le lien</text>
      <text x="775.50" y="515.35" font-size="11" fill="#6E675C" xml:space="preserve" style="white-space: pre" font-family="Inter">peut lire la liste (jamais le compte)</text>
    </g>
    <g class="entity" data-qualified-name="GMN42" id="ent0043" data-source-line="220">
      <path d="M1295.50,485 L1295.50,518 A4,4 0 0 0 1299.50,522 L1485.01,522 A4,4 0 0 0 1489.01,518 L1489.01,491 L1479.01,481 L1369.10,481 L1179.18,361.60 L1361.10,481 L1299.50,481 A4,4 0 0 0 1295.50,485" fill="#FBF8F2" stroke="#DCCFBA" stroke-width="1"/>
      <path d="M1479.01,481 L1479.01,489 A2,2 0 0 0 1481.01,491 L1489.01,491 L1479.01,481" fill="#FBF8F2" stroke="#DCCFBA" stroke-width="1"/>
      <text x="1301.50" y="492.35" font-size="11" fill="#6E675C" xml:space="preserve" style="white-space: pre" font-family="Inter">Seul le hash du code est stocké.</text>
      <text x="1301.50" y="502.35" font-size="11" fill="#6E675C" xml:space="preserve" style="white-space: pre" font-family="Inter">codePrefix = début visible</text>
      <text x="1301.50" y="514.35" font-size="11" fill="#6E675C" xml:space="preserve" style="white-space: pre" font-family="Inter">(reconnaissable, inutilisable seul)</text>
    </g>
    <g class="entity" data-qualified-name="PF.User" id="ent0002" data-source-line="93">
      <rect x="272" y="65" width="172.81" height="62" rx="4" ry="4" fill="#FFFFFF" stroke="#A89B85" stroke-width="1"/>
      <text x="345.01" y="76.11" font-size="12" fill="#4A443A" xml:space="preserve" style="white-space: pre" font-family="Inter">User</text>
      <line x1="273" y1="85" x2="443.81" y2="85" stroke="#A89B85" stroke-width="1"/>
      <text x="278" y="96.11" font-size="12" fill="#4A443A" xml:space="preserve" style="white-space: pre" font-family="Inter">id : serial «PK»</text>
      <text x="278" y="107.11" font-size="12" fill="#4A443A" xml:space="preserve" style="white-space: pre" font-family="Inter">email / firstName / lastName</text>
      <text x="278" y="120.11" font-size="12" fill="#4A443A" xml:space="preserve" style="white-space: pre" font-family="Inter">loyaltyPoints : integer = 0</text>
    </g>
    <g class="entity" data-qualified-name="PF.LoyaltyTransaction" id="ent0003" data-source-line="98">
      <rect x="308" y="246.50" width="136.61" height="126" rx="4" ry="4" fill="#FFFFFF" stroke="#A89B85" stroke-width="1"/>
      <text x="322.70" y="261.61" font-size="12" fill="#4A443A" xml:space="preserve" style="white-space: pre" font-family="Inter">LoyaltyTransaction</text>
      <line x1="309" y1="269.50" x2="443.61" y2="269.50" stroke="#A89B85" stroke-width="1"/>
      <text x="314" y="280.61" font-size="12" fill="#4A443A" xml:space="preserve" style="white-space: pre" font-family="Inter">id : serial «PK»</text>
      <text x="314" y="293.61" font-size="12" fill="#4A443A" xml:space="preserve" style="white-space: pre" font-family="Inter">userId : integer «FK»</text>
      <text x="314" y="306.61" font-size="12" fill="#4A443A" xml:space="preserve" style="white-space: pre" font-family="Inter">points : integer</text>
      <text x="314" y="319.61" font-size="12" fill="#4A443A" xml:space="preserve" style="white-space: pre" font-family="Inter">kind : LoyaltyKind</text>
      <text x="314" y="332.61" font-size="12" fill="#4A443A" xml:space="preserve" style="white-space: pre" font-family="Inter">orderId : integer «FK»</text>
      <text x="314" y="345.61" font-size="12" fill="#4A443A" xml:space="preserve" style="white-space: pre" font-family="Inter">createdAt : timestamp</text>
      <line x1="309" y1="352.50" x2="443.61" y2="352.50" stroke="#A89B85" stroke-width="1"/>
      <text x="314" y="365.61" font-size="12" fill="#4A443A" xml:space="preserve" style="white-space: pre" font-family="Inter">reason : varchar(160)</text>
    </g>
    <g class="entity" data-qualified-name="PF.LoyaltyKind" id="ent0004" data-source-line="107">
      <rect x="332" y="464.50" width="76.63" height="74" rx="4" ry="4" fill="#FFFFFF" stroke="#A89B85" stroke-width="1"/>
      <text x="336.91" y="479.61" font-size="12" fill="#4A443A" xml:space="preserve" style="white-space: pre" font-family="Inter">LoyaltyKind</text>
      <line x1="333" y1="487.50" x2="407.63" y2="487.50" stroke="#A89B85" stroke-width="1"/>
      <text x="338" y="497.61" font-size="12" fill="#4A443A" xml:space="preserve" style="white-space: pre" font-family="Inter">award</text>
      <text x="338" y="511.61" font-size="12" fill="#4A443A" xml:space="preserve" style="white-space: pre" font-family="Inter">redemption</text>
      <text x="338" y="520.61" font-size="12" fill="#4A443A" xml:space="preserve" style="white-space: pre" font-family="Inter">reversal</text>
      <text x="338" y="530.61" font-size="12" fill="#4A443A" xml:space="preserve" style="white-space: pre" font-family="Inter">restore</text>
    </g>
    <g class="entity" data-qualified-name="PW.WishlistItem" id="ent0006" data-source-line="116">
      <rect x="493.50" y="266" width="171.60" height="87" rx="4" ry="4" fill="#FFFFFF" stroke="#A89B85" stroke-width="1"/>
      <text x="544.83" y="278.11" font-size="12" fill="#4A443A" xml:space="preserve" style="white-space: pre" font-family="Inter">WishlistItem</text>
      <line x1="494.50" y1="286" x2="664.10" y2="286" stroke="#A89B85" stroke-width="1"/>
      <text x="499.50" y="300.11" font-size="12" fill="#4A443A" xml:space="preserve" style="white-space: pre" font-family="Inter">userId : integer «PK, FK»</text>
      <text x="499.50" y="313.11" font-size="12" fill="#4A443A" xml:space="preserve" style="white-space: pre" font-family="Inter">productId : integer «PK, FK»</text>
      <text x="499.50" y="326.11" font-size="12" fill="#4A443A" xml:space="preserve" style="white-space: pre" font-family="Inter">createdAt : timestamp</text>
      <line x1="494.50" y1="333" x2="664.10" y2="333" stroke="#A89B85" stroke-width="1"/>
      <text x="499.50" y="346.11" font-size="12" fill="#4A443A" xml:space="preserve" style="white-space: pre" font-family="Inter">note : varchar(200)</text>
    </g>
    <g class="entity" data-qualified-name="PW.WishlistShare" id="ent0007" data-source-line="122">
      <rect x="683.50" y="248" width="176.40" height="123" rx="4" ry="4" fill="#FFFFFF" stroke="#A89B85" stroke-width="1"/>
      <text x="733.16" y="260.11" font-size="12" fill="#4A443A" xml:space="preserve" style="white-space: pre" font-family="Inter">WishlistShare</text>
      <line x1="684.50" y1="268" x2="858.90" y2="268" stroke="#A89B85" stroke-width="1"/>
      <text x="689.50" y="279.11" font-size="12" fill="#4A443A" xml:space="preserve" style="white-space: pre" font-family="Inter">id : serial «PK»</text>
      <text x="689.50" y="292.11" font-size="12" fill="#4A443A" xml:space="preserve" style="white-space: pre" font-family="Inter">userId : integer «FK»</text>
      <text x="689.50" y="305.11" font-size="12" fill="#4A443A" xml:space="preserve" style="white-space: pre" font-family="Inter">revokedAt : timestamp</text>
      <text x="689.50" y="318.11" font-size="12" fill="#4A443A" xml:space="preserve" style="white-space: pre" font-family="Inter">createdAt : timestamp</text>
      <line x1="684.50" y1="325" x2="858.90" y2="325" stroke="#A89B85" stroke-width="1"/>
      <text x="689.50" y="339.11" font-size="12" fill="#4A443A" xml:space="preserve" style="white-space: pre" font-family="Inter">token : varchar(64) «unique»</text>
      <text x="689.50" y="351.11" font-size="12" fill="#4A443A" xml:space="preserve" style="white-space: pre" font-family="Inter">label : varchar(120)</text>
      <text x="689.50" y="364.11" font-size="12" fill="#4A443A" xml:space="preserve" style="white-space: pre" font-family="Inter">message : varchar(400)</text>
    </g>
    <g class="entity" data-qualified-name="PG.GiftCard" id="ent0009" data-source-line="134">
      <rect x="1000" y="237" width="178.52" height="145" rx="4" ry="4" fill="#FFFFFF" stroke="#A89B85" stroke-width="1"/>
      <text x="1065.77" y="249.11" font-size="12" fill="#4A443A" xml:space="preserve" style="white-space: pre" font-family="Inter">GiftCard</text>
      <line x1="1001" y1="257" x2="1177.52" y2="257" stroke="#A89B85" stroke-width="1"/>
      <text x="1006" y="268.11" font-size="12" fill="#4A443A" xml:space="preserve" style="white-space: pre" font-family="Inter">id : serial «PK»</text>
      <text x="1006" y="281.11" font-size="12" fill="#4A443A" xml:space="preserve" style="white-space: pre" font-family="Inter">codeHash : varchar «unique»</text>
      <text x="1006" y="294.11" font-size="12" fill="#4A443A" xml:space="preserve" style="white-space: pre" font-family="Inter">initialMillimes : integer</text>
      <text x="1006" y="307.11" font-size="12" fill="#4A443A" xml:space="preserve" style="white-space: pre" font-family="Inter">balanceMillimes : integer</text>
      <text x="1006" y="317.11" font-size="12" fill="#4A443A" xml:space="preserve" style="white-space: pre" font-family="Inter">status : GiftCardStatus</text>
      <text x="1006" y="330.11" font-size="12" fill="#4A443A" xml:space="preserve" style="white-space: pre" font-family="Inter">issuedBy : integer «FK»</text>
      <text x="1006" y="343.11" font-size="12" fill="#4A443A" xml:space="preserve" style="white-space: pre" font-family="Inter">expiresAt : timestamp</text>
      <line x1="1001" y1="350" x2="1177.52" y2="350" stroke="#A89B85" stroke-width="1"/>
      <text x="1006" y="363.11" font-size="12" fill="#4A443A" xml:space="preserve" style="white-space: pre" font-family="Inter">codePrefix : varchar(8)</text>
      <text x="1006" y="375.11" font-size="12" fill="#4A443A" xml:space="preserve" style="white-space: pre" font-family="Inter">note : varchar(300)</text>
    </g>
    <g class="entity" data-qualified-name="PG.GiftCardTransaction" id="ent0010" data-source-line="145">
      <rect x="1107.50" y="441.50" width="155.91" height="120" rx="4" ry="4" fill="#FFFFFF" stroke="#A89B85" stroke-width="1"/>
      <text x="1128.74" y="453.61" font-size="12" fill="#4A443A" xml:space="preserve" style="white-space: pre" font-family="Inter">GiftCardTransaction</text>
      <line x1="1108.50" y1="461.50" x2="1262.41" y2="461.50" stroke="#A89B85" stroke-width="1"/>
      <text x="1113.50" y="472.61" font-size="12" fill="#4A443A" xml:space="preserve" style="white-space: pre" font-family="Inter">id : serial «PK»</text>
      <text x="1113.50" y="485.61" font-size="12" fill="#4A443A" xml:space="preserve" style="white-space: pre" font-family="Inter">giftCardId : integer «FK»</text>
      <text x="1113.50" y="498.61" font-size="12" fill="#4A443A" xml:space="preserve" style="white-space: pre" font-family="Inter">orderId : integer «FK»</text>
      <text x="1113.50" y="511.61" font-size="12" fill="#4A443A" xml:space="preserve" style="white-space: pre" font-family="Inter">amountMillimes : integer</text>
      <text x="1113.50" y="521.61" font-size="12" fill="#4A443A" xml:space="preserve" style="white-space: pre" font-family="Inter">kind : GCTransactionKind</text>
      <text x="1113.50" y="534.61" font-size="12" fill="#4A443A" xml:space="preserve" style="white-space: pre" font-family="Inter">createdAt : timestamp</text>
      <line x1="1108.50" y1="541.50" x2="1262.41" y2="541.50" stroke="#A89B85" stroke-width="1"/>
      <text x="1113.50" y="554.61" font-size="12" fill="#4A443A" xml:space="preserve" style="white-space: pre" font-family="Inter">reason : varchar(200)</text>
    </g>
    <g class="entity" data-qualified-name="PG.GiftCardStatus" id="ent0011" data-source-line="154">
      <rect x="1000" y="466" width="88.76" height="71" rx="4" ry="4" fill="#FFFFFF" stroke="#A89B85" stroke-width="1"/>
      <text x="1003" y="478.11" font-size="12" fill="#4A443A" xml:space="preserve" style="white-space: pre" font-family="Inter">GiftCardStatus</text>
      <line x1="1001" y1="486" x2="1087.76" y2="486" stroke="#A89B85" stroke-width="1"/>
      <text x="1006" y="497.11" font-size="12" fill="#4A443A" xml:space="preserve" style="white-space: pre" font-family="Inter">active</text>
      <text x="1006" y="506.11" font-size="12" fill="#4A443A" xml:space="preserve" style="white-space: pre" font-family="Inter">redeemed</text>
      <text x="1006" y="520.11" font-size="12" fill="#4A443A" xml:space="preserve" style="white-space: pre" font-family="Inter">expired</text>
      <text x="1006" y="529.11" font-size="12" fill="#4A443A" xml:space="preserve" style="white-space: pre" font-family="Inter">cancelled</text>
    </g>
    <g class="entity" data-qualified-name="PG.GCTransactionKind" id="ent0012" data-source-line="160">
      <rect x="1126.50" y="611.50" width="115.77" height="74" rx="4" ry="4" fill="#FFFFFF" stroke="#A89B85" stroke-width="1"/>
      <text x="1129.50" y="623.61" font-size="12" fill="#4A443A" xml:space="preserve" style="white-space: pre" font-family="Inter">GCTransactionKind</text>
      <line x1="1127.50" y1="631.50" x2="1241.27" y2="631.50" stroke="#A89B85" stroke-width="1"/>
      <text x="1132.50" y="642.61" font-size="12" fill="#4A443A" xml:space="preserve" style="white-space: pre" font-family="Inter">issue</text>
      <text x="1132.50" y="655.61" font-size="12" fill="#4A443A" xml:space="preserve" style="white-space: pre" font-family="Inter">redemption</text>
      <text x="1132.50" y="668.61" font-size="12" fill="#4A443A" xml:space="preserve" style="white-space: pre" font-family="Inter">adjust</text>
      <text x="1132.50" y="677.61" font-size="12" fill="#4A443A" xml:space="preserve" style="white-space: pre" font-family="Inter">refund</text>
    </g>
    <g class="entity" data-qualified-name="PS.ShopService" id="ent0014" data-source-line="169">
      <rect x="731.50" y="67.50" width="192.25" height="57" rx="4" ry="4" fill="#FFFFFF" stroke="#A89B85" stroke-width="1"/>
      <text x="732.50" y="82.36" font-size="13" fill="#8A7E69" xml:space="preserve" style="white-space: pre" font-family="Inter">«module\nsrc/actions/shop.ts»</text>
      <text x="791.51" y="95.61" font-size="12" fill="#4A443A" xml:space="preserve" style="white-space: pre" font-family="Inter">ShopService</text>
      <line x1="732.50" y1="103.50" x2="922.75" y2="103.50" stroke="#A89B85" stroke-width="1"/>
      <text x="737.50" y="117.61" font-size="12" fill="#4A443A" xml:space="preserve" style="white-space: pre" font-family="Inter">toggleWishlistAction(productId)</text>
    </g>
    <g class="entity" data-qualified-name="PS.AdminGiftService" id="ent0015" data-source-line="172">
      <rect x="941.50" y="64" width="236.20" height="64" rx="4" ry="4" fill="#FFFFFF" stroke="#A89B85" stroke-width="1"/>
      <text x="960.89" y="76.86" font-size="13" fill="#8A7E69" xml:space="preserve" style="white-space: pre" font-family="Inter">«module\nsrc/actions/admin.ts»</text>
      <text x="1010.17" y="87.11" font-size="12" fill="#4A443A" xml:space="preserve" style="white-space: pre" font-family="Inter">AdminGiftService</text>
      <line x1="942.50" y1="95" x2="1176.70" y2="95" stroke="#A89B85" stroke-width="1"/>
      <text x="947.50" y="109.11" font-size="12" fill="#4A443A" xml:space="preserve" style="white-space: pre" font-family="Inter">issueGiftCardAction(amount, expiresAt)</text>
      <text x="947.50" y="121.11" font-size="12" fill="#4A443A" xml:space="preserve" style="white-space: pre" font-family="Inter">cancelGiftCardAction(cardId)</text>
    </g>
    <g class="entity" data-qualified-name="PS.CheckoutService" id="ent0016" data-source-line="176">
      <rect x="494" y="70" width="218.64" height="52" rx="4" ry="4" fill="#FFFFFF" stroke="#A89B85" stroke-width="1"/>
      <text x="495" y="82.86" font-size="13" fill="#8A7E69" xml:space="preserve" style="white-space: pre" font-family="Inter">«module\nsrc/actions/checkout.ts»</text>
      <text x="554.74" y="93.11" font-size="12" fill="#4A443A" xml:space="preserve" style="white-space: pre" font-family="Inter">CheckoutService</text>
      <line x1="495" y1="101" x2="711.64" y2="101" stroke="#A89B85" stroke-width="1"/>
      <text x="500" y="115.11" font-size="12" fill="#4A443A" xml:space="preserve" style="white-space: pre" font-family="Inter">placeOrderAction()</text>
    </g>
    <g class="entity" data-qualified-name="PL.Product" id="ent0018" data-source-line="182">
      <rect x="595.50" y="489.50" width="50.40" height="20" rx="4" ry="4" fill="#FFFFFF" stroke="#A89B85" stroke-width="1"/>
      <text x="598.50" y="500.61" font-size="12" fill="#4A443A" xml:space="preserve" style="white-space: pre" font-family="Inter">Product</text>
    </g>
    <g class="entity" data-qualified-name="PL.Order" id="ent0019" data-source-line="183">
      <rect x="539.50" y="489.50" width="38.36" height="20" rx="4" ry="4" fill="#FFFFFF" stroke="#A89B85" stroke-width="1"/>
      <text x="542.50" y="500.61" font-size="12" fill="#4A443A" xml:space="preserve" style="white-space: pre" font-family="Inter">Order</text>
    </g>
    <g class="entity" data-qualified-name="PL.Database" id="ent0020" data-source-line="184">
      <rect x="664" y="485" width="73.14" height="33" rx="4" ry="4" fill="#FFFFFF" stroke="#A89B85" stroke-width="1"/>
      <text x="665" y="499.86" font-size="13" fill="#8A7E69" xml:space="preserve" style="white-space: pre" font-family="Inter">«singleton»</text>
      <text x="673.74" y="509.11" font-size="12" fill="#4A443A" xml:space="preserve" style="white-space: pre" font-family="Inter">Database</text>
    </g>
    <g class="link" data-entity-1="ent0002" data-entity-2="ent0003" id="lnk21" data-link-type="association">
      <path d="M342.0753,127.0362 C338.5401,134.9303 335.3208,143.5942 333.5,152 C326.6998,183.3938 334.4831,217.862 345.2099,246.4409" fill="none" stroke="#4A463F" stroke-width="1.10"/>
      <text x="335.50" y="161.36" font-size="13" fill="#2C2A26" xml:space="preserve" style="white-space: pre" font-family="Inter">userId</text>
      <text x="323.21" y="241.31" font-size="13" fill="#2C2A26" xml:space="preserve" style="white-space: pre" font-family="Inter">0..*</text>
      <text x="336.08" y="133.90" font-size="13" fill="#2C2A26" xml:space="preserve" style="white-space: pre" font-family="Inter">1</text>
    </g>
    <g class="link" data-entity-1="ent0003" data-entity-2="ent0019" id="lnk22" data-link-type="association">
      <path d="M436.0936,372.7131 C476.5248,414.9215 526.3837,466.972 547.8489,489.3808" fill="none" stroke="#4A463F" stroke-width="1.10"/>
      <text x="480.50" y="409.36" font-size="13" fill="#2C2A26" xml:space="preserve" style="white-space: pre" font-family="Inter">orderId</text>
      <text x="527.85" y="484.25" font-size="13" fill="#2C2A26" xml:space="preserve" style="white-space: pre" font-family="Inter">0..1</text>
      <text x="414.09" y="379.58" font-size="13" fill="#2C2A26" xml:space="preserve" style="white-space: pre" font-family="Inter">0..*</text>
    </g>
    <g class="link" data-entity-1="ent0002" data-entity-2="ent0006" id="lnk23" data-link-type="association">
      <path d="M423.113,127.08 C439.2735,133.5734 456.7756,139.7551 473.5,144 C489.3178,148.0148 534.4055,141.0436 546.5,152 C577.6772,180.2435 583.5106,229.8681 583.078,265.6758" fill="none" stroke="#4A463F" stroke-width="1.10"/>
      <text x="561.08" y="260.54" font-size="13" fill="#2C2A26" xml:space="preserve" style="white-space: pre" font-family="Inter">0..*</text>
      <text x="424.11" y="133.94" font-size="13" fill="#2C2A26" xml:space="preserve" style="white-space: pre" font-family="Inter">1</text>
    </g>
    <g class="link" data-entity-1="ent0006" data-entity-2="ent0018" id="lnk24" data-link-type="association">
      <path d="M588.7012,353.1397 C598.2395,397.3417 612.5237,463.5368 618.1255,489.4961" fill="none" stroke="#4A463F" stroke-width="1.10"/>
      <text x="604.50" y="411.36" font-size="13" fill="#2C2A26" xml:space="preserve" style="white-space: pre" font-family="Inter">productId</text>
      <text x="612.13" y="484.36" font-size="13" fill="#2C2A26" xml:space="preserve" style="white-space: pre" font-family="Inter">1</text>
      <text x="566.70" y="360.00" font-size="13" fill="#2C2A26" xml:space="preserve" style="white-space: pre" font-family="Inter">0..*</text>
    </g>
    <g class="link" data-entity-1="ent0002" data-entity-2="ent0007" id="lnk25" data-link-type="association">
      <path d="M420.7934,127.107 C437.5364,133.9004 455.8924,140.2161 473.5,144 C498.066,149.2793 678.5861,138.0728 699.5,152 C731.861,173.5502 749.9223,213.5707 759.8619,247.7454" fill="none" stroke="#4A463F" stroke-width="1.10"/>
      <text x="737.86" y="242.61" font-size="13" fill="#2C2A26" xml:space="preserve" style="white-space: pre" font-family="Inter">0..*</text>
      <text x="414.79" y="133.97" font-size="13" fill="#2C2A26" xml:space="preserve" style="white-space: pre" font-family="Inter">1</text>
    </g>
    <g class="link" data-entity-1="ent0002" data-entity-2="ent0009" id="lnk26" data-link-type="association">
      <path d="M420.4845,127.0241 C437.3082,133.8635 455.7808,140.2224 473.5,144 C581.9717,167.1254 872.6047,126.7944 971.5,177 C998.8511,190.8852 1022.8396,213.9879 1041.919,236.9882" fill="none" stroke="#4A463F" stroke-width="1.10"/>
      <text x="954.50" y="163.86" font-size="13" fill="#2C2A26" xml:space="preserve" style="white-space: pre" font-family="Inter">issuedBy</text>
      <text x="1019.92" y="231.85" font-size="13" fill="#2C2A26" xml:space="preserve" style="white-space: pre" font-family="Inter">0..*</text>
      <text x="400.48" y="133.89" font-size="13" fill="#2C2A26" xml:space="preserve" style="white-space: pre" font-family="Inter">0..1</text>
    </g>
    <g class="link" data-entity-1="ent0009" data-entity-2="ent0010" id="lnk27" data-link-type="association">
      <path d="M1100.5415,382.0781 C1103.8147,394.0937 1108.0431,406.1667 1113.5,417 C1117.7194,425.3767 1122.9614,433.6058 1128.68,441.437" fill="none" stroke="#4A463F" stroke-width="1.10"/>
      <text x="1115.50" y="411.86" font-size="13" fill="#2C2A26" xml:space="preserve" style="white-space: pre" font-family="Inter">giftCardId</text>
      <text x="1106.68" y="436.30" font-size="13" fill="#2C2A26" xml:space="preserve" style="white-space: pre" font-family="Inter">0..*</text>
      <text x="1094.54" y="388.94" font-size="13" fill="#2C2A26" xml:space="preserve" style="white-space: pre" font-family="Inter">1</text>
    </g>
    <g class="link" data-entity-1="ent0010" data-entity-2="ent0019" id="lnk28" data-link-type="association">
      <path d="M1127.1645,441.4539 C1117.8849,434.7956 1107.8947,428.9893 1097.5,425 C1048.2103,406.0835 615.7215,403.7424 586.5,425 C565.9137,439.9758 560.4341,471.7123 558.995,489.236" fill="none" stroke="#4A463F" stroke-width="1.10"/>
      <text x="733.50" y="409.36" font-size="13" fill="#2C2A26" xml:space="preserve" style="white-space: pre" font-family="Inter">orderId</text>
      <text x="559.99" y="484.10" font-size="13" fill="#2C2A26" xml:space="preserve" style="white-space: pre" font-family="Inter">0..1</text>
      <text x="1128.16" y="436.32" font-size="13" fill="#2C2A26" xml:space="preserve" style="white-space: pre" font-family="Inter">0..*</text>
    </g>
    <g class="link" data-entity-1="ent0003" data-entity-2="ent0004" id="lnk29" data-link-type="association">
      <path d="M357.2583,372.664 C354.5688,387.1261 353.1259,402.5275 354.5,417 C355.9788,432.5758 358.9762,449.5688 361.981,464.1349" fill="none" stroke="#4A463F" stroke-width="1.10"/>
      <text x="356.50" y="410.36" font-size="13" fill="#2C2A26" xml:space="preserve" style="white-space: pre" font-family="Inter">kind</text>
    </g>
    <g class="link" data-entity-1="ent0009" data-entity-2="ent0011" id="lnk30" data-link-type="association">
      <path d="M1052.8475,382.1232 C1050.7446,388.0692 1048.9146,394.0733 1047.5,400 C1042.3937,421.3932 1041.5872,446.0734 1042.0848,465.6226" fill="none" stroke="#4A463F" stroke-width="1.10"/>
      <text x="1049.50" y="409.36" font-size="13" fill="#2C2A26" xml:space="preserve" style="white-space: pre" font-family="Inter">status</text>
    </g>
    <g class="link" data-entity-1="ent0010" data-entity-2="ent0012" id="lnk31" data-link-type="association">
      <path d="M1168.7274,561.6142 C1167.3585,572.2063 1167.0006,583.1614 1168.5,593.5 C1169.3421,599.306 1170.6683,605.3567 1172.2055,611.2185" fill="none" stroke="#4A463F" stroke-width="1.10"/>
      <text x="1170.50" y="588.36" font-size="13" fill="#2C2A26" xml:space="preserve" style="white-space: pre" font-family="Inter">kind</text>
    </g>
    <g class="link" data-entity-1="ent0014" data-entity-2="ent0006" id="lnk32" data-link-type="dependency">
      <polygon points="603.27,265.74 611.39,260.15 605.89,261.47 604.57,255.97 603.27,265.74" fill="#4A463F" stroke="#4A463F" stroke-width="1"/>
      <path d="M758.9118,124.5073 C730.8956,137.7779 699.3164,155.5191 674.5,177 C645.4327,202.1604 622.9671,233.613 605.8875,261.4742" fill="none" stroke="#4A463F" stroke-width="1.10" stroke-dasharray="7,7"/>
      <text x="707.50" y="163.36" font-size="13" fill="#2C2A26" xml:space="preserve" style="white-space: pre" font-family="Inter">toggle</text>
    </g>
    <g class="link" data-entity-1="ent0015" data-entity-2="ent0009" id="lnk33" data-link-type="dependency">
      <polygon points="1079.34,236.86 1082.03,227.39 1078.64,231.91 1074.11,228.51 1079.34,236.86" fill="#4A463F" stroke="#4A463F" stroke-width="1"/>
      <path d="M1063.9266,128.2076 C1067.9687,156.7044 1073.3928,194.9446 1078.6359,231.9084" fill="none" stroke="#4A463F" stroke-width="1.10" stroke-dasharray="7,7"/>
      <text x="1071.50" y="162.86" font-size="13" fill="#2C2A26" xml:space="preserve" style="white-space: pre" font-family="Inter">émet / annule</text>
    </g>
    <g class="link" data-entity-1="ent0016" data-entity-2="ent0003" id="lnk34" data-link-type="dependency">
      <polygon points="402.77,246.30 410.40,240.07 405.03,241.84 403.26,236.47 402.77,246.30" fill="#4A463F" stroke="#4A463F" stroke-width="1"/>
      <path d="M520.7158,122.0947 C503.2554,129.8572 485.8087,139.7011 471.5,152 C441.8523,177.4834 421.0154,210.1427 405.0269,241.8381" fill="none" stroke="#4A463F" stroke-width="1.10" stroke-dasharray="7,7"/>
      <text x="473.50" y="162.86" font-size="13" fill="#2C2A26" xml:space="preserve" style="white-space: pre" font-family="Inter">accorde / consomme</text>
    </g>
    <g class="link" data-entity-1="ent0015" data-entity-2="ent0020" id="lnk35" data-link-type="dependency">
      <polygon points="707.94,484.90 715.68,478.81 710.27,480.47 708.60,475.07 707.94,484.90" fill="#4A463F" stroke="#4A463F" stroke-width="1"/>
      <path d="M964.1912,128.0639 C945.6522,135.788 929.9516,144.1157 923.5,152 C856.2074,234.2361 923.7883,290.4101 879.5,387 C872.3832,402.5212 870.5656,408.9636 855.5,417 C818.1148,436.9425 797.8529,404.997 760.5,425 C735.5563,438.3577 719.7329,462.5612 710.2716,480.4744" fill="none" stroke="#4A463F" stroke-width="1.10" stroke-dasharray="7,7"/>
      <text x="908.50" y="312.86" font-size="13" fill="#2C2A26" xml:space="preserve" style="white-space: pre" font-family="Inter">requêtes</text>
    </g>
<?plantuml-src hLZDRXit4BxlKn0kqCY5_oJBiYCa1jQov1Xn6Y5oaKFR0xrBIOntoSsIAzij31Gz5EYrw0FqM3UFq5lq9dcI3hdSNUwF5AEjBXPdXZCVvryMrvH5ECOX4dFiynlAPcYA0q4SaNEki7SzYtd2_04FU8o-6EcF9U6JAKu2EU9CVer3WiwP974pVq9_8AYztymq-Zk3ZjlfMI9k7FCRmpmuEDZhkbNcvPnwrum8WTexROlv9eKTCnAZ8ulk1LW8LygONYMId7kSQM1xpfpw17aqzWAIVYTX9E_Gb9B05pOb97BEWLJHYNvq43fPuJ7WyDWdiQ6wHqzFZWvoglK6eDNzaT8cyYuWA0emPHd5k1IX2RYTS7aN4UlsaNiux3sjSSjwSbTO5xjkjxllLfcfjKwDN5BtIZkdB5xGglejwPAM2L6EbJppr-bWC3fndNlBvuGbuGgN3qRkwA3gyi7Jau7R_Kyk7u99-sKs7AeIVuezyZ-bWQqx0cruHb8mCV4aPhE0r0LMc7P7XwDsrRJnw6VTaOUgU7YtmJasNCRbAYWdewDHPoKKosnls3iy69JCjZ_h9q7U9uIP4DYT0nxHsnzbn7B7GEY2Jia5PQIQBgVkaSrT6T8nZYNrQ8IPV9nGOmfO0atPM64NbLzbb8lRWnggW-gDsiEZdDq8HxEQWEIC0i8PA8zMvrtABaNyO73e3ZDMKxPfnWk2uKxP5fYd2omfPtM3dU7fi2BJs05EwGAwUODVsiEJqv4bq8ZPC9jGMwm2yIl8D2XEItxVtJ_eA5LlY8Wu4wGkSkWUTdhxEkDlnzZtrNJMXMU5EwDtL2Todg3drWSDBfQ_lXulVxvyCqIVVleTZQY_V0YeN3vieRTKp0Cg9FeIdT6fH0CS-w9q7RITyX1oY23_2M4p01SI9c7GKVMdZo8E3Kzi8QM622sqe0G87k03WWUHmycjusIjQQC0i86mGEEHhj9qSduZO4Yh8qBK1-rmf3X07p-CNtxyMvC9W0dGBapZMAIRnYw2g_gh5WZu7GxatLZZ0XMg7yz0wtEOx0ZTvwOkKhdB63E1FPKZwmqdG3htBOKVFumoNbGnfedGZPIuiVCIJfgiKscLefXW0K3wQ85ZRuxZLhktjwav7h0ayLtbSqb38YGE8_CWFG4jE-OX-0R2QTJwQcE1DvhZWiG21-OWe8w9LdLlXIdBZJH8RwqWPPnpIK9Zgi4vuvTRg71GpFt4a-j4zB0e7jxPUyJ3otWcS8_y-o1AVarir_Uwcy1E68LPOaG2V4K2EpeT0p9CwzPYTJFyu6nGNCU_xcLs70QbEagZSMP5GnMkgjlr3_UuJrvWCIyGLj-c9COncT9RwnL7wHieen8Klg91e71M4lqA1nY6xGekl4ecYfW1dMX2gbU8XFWdTyq18RSHXUniy5mbL_PJNz_NVFBeufwP2wjoOstHuX16XrpnVDC5pWOMbhmNrChzKLcloxtipQpYrRmZUSb3g_OjJwRVFHMh8D2dGbiLNkOk5Q2c5eBzTucGXZDDc5_Bsmc95zGZ8itOYPMnapcF31SzUnP2PmZ8Tqp4tcvgN-mAaDYHulZOm91y1djkLkUkbchbFQKSUzSFALFUMMy2Ap7RXdvgvbLZ8etiLf69cvOBAxAUJfyobi6SUDSy-GmKpqZPQ61lyyXhbNL6_MRDmHSmWOrtBoplZbEtv6Uj93-TOecli51G15K_7YHdnyVfsh2TVo2cWLwRX4Lqz73UQ6y03MtixUnyjT4qHFkcoJeDF7FBt0TD6XnSCVNLPCAUDavfz5ZQu8Pvjrf9iiHOfquF2oEGOYbayfRQppkKazCs6aNB7YZQYTCay5atDBWEXEq9tzUDfK05x4f7w9lEsuX0YTTAtkXqxFhSsJakp_k-AKQdLcTArFBSyY4a4fOpp1Xal5Cj1INTc3tOyvGRuAO7-SV3S8MfF9FxaAtla-LVC2KTHq-6Aoub3n6VwdrI_HU11w1ncY-Uu1hkNSDVdwfVqNgb1J6HnFh6Jcc714Ohf08j_q3lE4WiA6v0hkfJBrpeqo-_0VGmn0ni1dGHBny8QhNHwINieEqz54cXX8k6gc-O5JAH55ozV13Gbn7SL8ciUYw1-AYtrLvOpcVubKhC8WCZ0oMmjdiOEeP-T1_OxnCAReMf3mQ5MFwf82gKHBNrY2GIliCI5U1qeKUjTnWMRg64u4sH99kheMJ1r_-sIG9rPwvM3Z_HouL6P1o_uvGMZkS88dC5nXTKqAj0lQC5WU6CWMs1WR85GpNrZJh114y26qcfUSqIwgiE2IOXRaHvCb9dgvKzGRCOvhLAdcnEeTOS9t8JygxuWO9QCvn0UrRKyXw6MXxaJAmv-Q-ebXzpAZLDDsVKWWH5XbYhWErlvzJt2Vi-fhEvt3wsvsAf1ck2rNf8srWkvlCRjjrKNOrzfQeyZsBHMweYvPopsz8ZC3Iseygr-hPKtl5N8j93eWuyKritxLIwvafts7TA3R5g99k_Qz-PQK-7yxgm6Asfu3y0?>
  </g>

  </g>
</svg>