<svg xmlns="http://www.w3.org/2000/svg" version="1.1" viewBox="0 0 3840 2160" width="3840" height="2160">
<rect x="0" y="0" width="3840" height="2160" fill="#FFFFFF"/>
<text x="1920.0" y="118" font-family="Inter" font-size="56" font-weight="600" fill="#2C2A26" text-anchor="middle">Diagramme de séquence – Modification d’un produit</text>
<text x="1920.0" y="172" font-family="Inter" font-size="24" font-weight="500" letter-spacing="7" fill="#9A8F7D" text-anchor="middle">CLÉOPÂTRE · ESPACE SANTÉ BEAUTÉ</text>
<rect x="1855.0" y="196" width="130" height="5" rx="2.5" fill="#5B7C99"/>
<g transform="translate(431.1,280.0) scale(2.4230)">
<defs/>
  <g>
    <rect x="36.94" y="331" width="657.58" height="284" rx="4" ry="4" fill="#FAF7F1" stroke="#FAF7F1" stroke-width="1"/>
    <rect x="36.94" y="331" width="657.58" height="284" rx="4" ry="4" fill="#00000000" stroke="#D5C7AE" stroke-width="1.50"/>
    <rect x="385.35" y="451" width="284.18" height="48" rx="4" ry="4" fill="#FAF7F1" stroke="#FAF7F1" stroke-width="1"/>
    <rect x="385.35" y="451" width="284.18" height="48" rx="4" ry="4" fill="#00000000" stroke="#D5C7AE" stroke-width="1.50"/>
    <g>
      <title/>
      <rect x="49.44" y="75" width="8" height="564" fill="#00000000" stroke="#00000000" stroke-width="0"/>
      <line x1="52.94" y1="75" x2="52.94" y2="639" stroke="#C9BDA8" stroke-width="0.50" stroke-dasharray="5,5"/>
    </g>
    <g>
      <title/>
      <rect x="257.86" y="75" width="8" height="564" fill="#00000000" stroke="#00000000" stroke-width="0"/>
      <line x1="261.36" y1="75" x2="261.36" y2="639" stroke="#C9BDA8" stroke-width="0.50" stroke-dasharray="5,5"/>
    </g>
    <g>
      <title/>
      <rect x="397.85" y="75" width="8" height="564" fill="#00000000" stroke="#00000000" stroke-width="0"/>
      <line x1="401.35" y1="75" x2="401.35" y2="639" stroke="#C9BDA8" stroke-width="0.50" stroke-dasharray="5,5"/>
    </g>
    <g>
      <title/>
      <rect x="566.65" y="75" width="8" height="564" fill="#00000000" stroke="#00000000" stroke-width="0"/>
      <line x1="570.15" y1="75" x2="570.15" y2="639" stroke="#C9BDA8" stroke-width="0.50" stroke-dasharray="5,5"/>
    </g>
    <g>
      <title/>
      <rect x="650.03" y="75" width="8" height="564" fill="#00000000" stroke="#00000000" stroke-width="0"/>
      <line x1="653.53" y1="75" x2="653.53" y2="639" stroke="#C9BDA8" stroke-width="0.50" stroke-dasharray="5,5"/>
    </g>
    <text x="5" y="71.86" font-size="13" fill="#2C2A26" xml:space="preserve" style="white-space: pre" font-family="Inter">Administrateur</text>
    <circle cx="52.94" cy="13.50" r="8" fill="#F6F1E8" stroke="#A89B85" stroke-width="0.50"/>
    <path d="M52.94,21.50 L52.94,48.50 M39.94,29.50 L65.94,29.50 M52.94,48.50 L39.94,63.50 M52.94,48.50 L65.94,63.50" fill="#00000000" stroke="#A89B85" stroke-width="0.50"/>
    <rect x="226.92" y="36" width="68.89" height="38" rx="4" ry="4" fill="#FFFFFF" stroke="#A89B85" stroke-width="0.50"/>
    <text x="233.92" y="48.86" font-size="13" fill="#2C2A26" xml:space="preserve" style="white-space: pre" font-family="Inter">Interface</text>
    <text x="235.40" y="63.86" font-size="13" fill="#2C2A26" xml:space="preserve" style="white-space: pre" font-family="Inter">(Next.js)</text>
    <rect x="349.18" y="50" width="104.33" height="24" rx="4" ry="4" fill="#FFFFFF" stroke="#A89B85" stroke-width="0.50"/>
    <text x="356.18" y="63.86" font-size="13" fill="#2C2A26" xml:space="preserve" style="white-space: pre" font-family="Inter">Server Actions</text>
    <rect x="540.22" y="49" width="59.87" height="25" rx="4" ry="4" fill="#FFFFFF" stroke="#A89B85" stroke-width="0.50"/>
    <text x="547.22" y="63.86" font-size="13" fill="#2C2A26" xml:space="preserve" style="white-space: pre" font-family="Inter">lib/auth</text>
    <rect x="610.09" y="48" width="86.88" height="26" rx="4" ry="4" fill="#FFFFFF" stroke="#A89B85" stroke-width="0.50"/>
    <text x="617.09" y="63.86" font-size="13" fill="#2C2A26" xml:space="preserve" style="white-space: pre" font-family="Inter">PostgreSQL</text>
    <text x="5" y="645.86" font-size="13" fill="#2C2A26" xml:space="preserve" style="white-space: pre" font-family="Inter">Administrateur</text>
    <circle cx="52.94" cy="657.50" r="8" fill="#F6F1E8" stroke="#A89B85" stroke-width="0.50"/>
    <path d="M52.94,665.50 L52.94,692.50 M39.94,673.50 L65.94,673.50 M52.94,692.50 L39.94,707.50 M52.94,692.50 L65.94,707.50" fill="#00000000" stroke="#A89B85" stroke-width="0.50"/>
    <rect x="226.92" y="639" width="68.89" height="38" rx="4" ry="4" fill="#FFFFFF" stroke="#A89B85" stroke-width="0.50"/>
    <text x="233.92" y="651.86" font-size="13" fill="#2C2A26" xml:space="preserve" style="white-space: pre" font-family="Inter">Interface</text>
    <text x="235.40" y="666.86" font-size="13" fill="#2C2A26" xml:space="preserve" style="white-space: pre" font-family="Inter">(Next.js)</text>
    <rect x="349.18" y="639" width="104.33" height="24" rx="4" ry="4" fill="#FFFFFF" stroke="#A89B85" stroke-width="0.50"/>
    <text x="356.18" y="652.86" font-size="13" fill="#2C2A26" xml:space="preserve" style="white-space: pre" font-family="Inter">Server Actions</text>
    <rect x="540.22" y="639" width="59.87" height="25" rx="4" ry="4" fill="#FFFFFF" stroke="#A89B85" stroke-width="0.50"/>
    <text x="547.22" y="653.86" font-size="13" fill="#2C2A26" xml:space="preserve" style="white-space: pre" font-family="Inter">lib/auth</text>
    <rect x="610.09" y="639" width="86.88" height="26" rx="4" ry="4" fill="#FFFFFF" stroke="#A89B85" stroke-width="0.50"/>
    <text x="617.09" y="654.86" font-size="13" fill="#2C2A26" xml:space="preserve" style="white-space: pre" font-family="Inter">PostgreSQL</text>
    <polygon points="249.36,98 259.36,102 249.36,106 253.36,102" fill="#4A463F" stroke="#4A463F" stroke-width="1"/>
    <line x1="52.94" y1="102" x2="255.36" y2="102" stroke="#4A463F" stroke-width="1.10"/>
    <text x="59.94" y="96.86" font-size="13" fill="#2C2A26" xml:space="preserve" style="white-space: pre" font-family="Inter">Ouvre la fiche produit</text>
    <polygon points="641.53,125 651.53,129 641.53,133 645.53,129" fill="#4A463F" stroke="#4A463F" stroke-width="1"/>
    <line x1="261.36" y1="129" x2="647.53" y2="129" stroke="#4A463F" stroke-width="1.10"/>
    <text x="268.36" y="123.86" font-size="13" fill="#2C2A26" xml:space="preserve" style="white-space: pre" font-family="Inter">Charge les données du produit</text>
    <polygon points="272.36,149 262.36,153 272.36,157 268.36,153" fill="#4A463F" stroke="#4A463F" stroke-width="1"/>
    <line x1="266.36" y1="153" x2="652.53" y2="153" stroke="#4A463F" stroke-width="1.10" stroke-dasharray="2,2"/>
    <text x="278.36" y="147.86" font-size="13" fill="#2C2A26" xml:space="preserve" style="white-space: pre" font-family="Inter">Produit</text>
    <polygon points="63.94,176 53.94,180 63.94,184 59.94,180" fill="#4A463F" stroke="#4A463F" stroke-width="1"/>
    <line x1="57.94" y1="180" x2="260.36" y2="180" stroke="#4A463F" stroke-width="1.10" stroke-dasharray="2,2"/>
    <text x="69.94" y="174.86" font-size="13" fill="#2C2A26" xml:space="preserve" style="white-space: pre" font-family="Inter">Fiche produit</text>
    <polygon points="249.36,203 259.36,207 249.36,211 253.36,207" fill="#4A463F" stroke="#4A463F" stroke-width="1"/>
    <line x1="52.94" y1="207" x2="255.36" y2="207" stroke="#4A463F" stroke-width="1.10"/>
    <text x="59.94" y="201.86" font-size="13" fill="#2C2A26" xml:space="preserve" style="white-space: pre" font-family="Inter">Modifie les champs et soumet</text>
    <polygon points="389.35,227 399.35,231 389.35,235 393.35,231" fill="#4A463F" stroke="#4A463F" stroke-width="1"/>
    <line x1="261.36" y1="231" x2="395.35" y2="231" stroke="#4A463F" stroke-width="1.10"/>
    <text x="268.36" y="225.86" font-size="13" fill="#2C2A26" xml:space="preserve" style="white-space: pre" font-family="Inter">saveProductAction</text>
    <polygon points="558.15,251 568.15,255 558.15,259 562.15,255" fill="#4A463F" stroke="#4A463F" stroke-width="1"/>
    <line x1="401.35" y1="255" x2="564.15" y2="255" stroke="#4A463F" stroke-width="1.10"/>
    <text x="408.35" y="249.86" font-size="13" fill="#2C2A26" xml:space="preserve" style="white-space: pre" font-family="Inter">Vérifie le rôle</text>
    <polygon points="412.35,275 402.35,279 412.35,283 408.35,279" fill="#4A463F" stroke="#4A463F" stroke-width="1"/>
    <line x1="406.35" y1="279" x2="569.15" y2="279" stroke="#4A463F" stroke-width="1.10" stroke-dasharray="2,2"/>
    <text x="418.35" y="273.86" font-size="13" fill="#2C2A26" xml:space="preserve" style="white-space: pre" font-family="Inter">Rôle admin</text>
    <line x1="401.35" y1="306" x2="443.35" y2="306" stroke="#4A463F" stroke-width="1.10"/>
    <line x1="443.35" y1="306" x2="443.35" y2="319" stroke="#4A463F" stroke-width="1.10"/>
    <line x1="402.35" y1="319" x2="443.35" y2="319" stroke="#4A463F" stroke-width="1.10"/>
    <polygon points="412.35,315 402.35,319 412.35,323 408.35,319" fill="#4A463F" stroke="#4A463F" stroke-width="1"/>
    <text x="408.35" y="300.86" font-size="13" fill="#2C2A26" xml:space="preserve" style="white-space: pre" font-family="Inter">Valide le formulaire (Zod)</text>
    <path d="M40.94,331 L97.97,331 L97.97,333 L87.97,343 L36.94,343 L36.94,335 A4,4 0 0 1 40.94,331" fill="#FAF7F1" stroke="#D5C7AE" stroke-width="1.50"/>
    <rect x="36.94" y="331" width="657.58" height="284" rx="4" ry="4" fill="#00000000" stroke="#D5C7AE" stroke-width="1.50"/>
    <text x="51.94" y="337.86" font-size="13" fill="#2C2A26" xml:space="preserve" style="white-space: pre" font-weight="bold" font-family="Inter">alt</text>
    <text x="112.97" y="342.86" font-size="13" fill="#4A443A" xml:space="preserve" style="white-space: pre" font-weight="bold" font-family="Inter">[Produit introuvable]</text>
    <polygon points="272.36,365 262.36,369 272.36,373 268.36,369" fill="#4A463F" stroke="#4A463F" stroke-width="1"/>
    <line x1="266.36" y1="369" x2="400.35" y2="369" stroke="#4A463F" stroke-width="1.10" stroke-dasharray="2,2"/>
    <text x="278.36" y="362.86" font-size="13" fill="#2C2A26" xml:space="preserve" style="white-space: pre" font-family="Inter">Erreur</text>
    <polygon points="63.94,389 53.94,393 63.94,397 59.94,393" fill="#4A463F" stroke="#4A463F" stroke-width="1"/>
    <line x1="57.94" y1="393" x2="260.36" y2="393" stroke="#4A463F" stroke-width="1.10" stroke-dasharray="2,2"/>
    <text x="69.94" y="387.86" font-size="13" fill="#2C2A26" xml:space="preserve" style="white-space: pre" font-family="Inter">Produit introuvable</text>
    <line x1="36.94" y1="402" x2="694.53" y2="402" stroke="#D5C7AE" stroke-width="1" stroke-dasharray="2,2"/>
    <text x="41.94" y="413.86" font-size="13" fill="#4A443A" xml:space="preserve" style="white-space: pre" font-weight="bold" font-family="Inter">[Produit trouvé]</text>
    <polygon points="641.53,435 651.53,439 641.53,443 645.53,439" fill="#4A463F" stroke="#4A463F" stroke-width="1"/>
    <line x1="401.35" y1="439" x2="647.53" y2="439" stroke="#4A463F" stroke-width="1.10"/>
    <text x="408.35" y="433.86" font-size="13" fill="#2C2A26" xml:space="preserve" style="white-space: pre" font-family="Inter">Met à jour le produit</text>
    <path d="M389.35,451 L451.28,451 L451.28,455 L441.28,465 L385.35,465 L385.35,455 A4,4 0 0 1 389.35,451" fill="#FAF7F1" stroke="#D5C7AE" stroke-width="1.50"/>
    <rect x="385.35" y="451" width="284.18" height="48" rx="4" ry="4" fill="#00000000" stroke="#D5C7AE" stroke-width="1.50"/>
    <text x="400.35" y="460.86" font-size="13" fill="#2C2A26" xml:space="preserve" style="white-space: pre" font-weight="bold" font-family="Inter">opt</text>
    <text x="466.28" y="462.86" font-size="13" fill="#4A443A" xml:space="preserve" style="white-space: pre" font-weight="bold" font-family="Inter">[Stock modifié]</text>
    <polygon points="641.53,487 651.53,491 641.53,495 645.53,491" fill="#4A463F" stroke="#4A463F" stroke-width="1"/>
    <line x1="401.35" y1="491" x2="647.53" y2="491" stroke="#4A463F" stroke-width="1.10"/>
    <text x="408.35" y="485.86" font-size="13" fill="#2C2A26" xml:space="preserve" style="white-space: pre" font-family="Inter">Journalise le mouvement de stock</text>
    <polygon points="641.53,528 651.53,532 641.53,536 645.53,532" fill="#4A463F" stroke="#4A463F" stroke-width="1"/>
    <line x1="401.35" y1="532" x2="647.53" y2="532" stroke="#4A463F" stroke-width="1.10"/>
    <text x="408.35" y="526.86" font-size="13" fill="#2C2A26" xml:space="preserve" style="white-space: pre" font-family="Inter">Met à jour les concerns</text>
    <polygon points="641.53,552 651.53,556 641.53,560 645.53,556" fill="#4A463F" stroke="#4A463F" stroke-width="1"/>
    <line x1="401.35" y1="556" x2="647.53" y2="556" stroke="#4A463F" stroke-width="1.10"/>
    <text x="408.35" y="550.86" font-size="13" fill="#2C2A26" xml:space="preserve" style="white-space: pre" font-family="Inter">Valide la transaction</text>
    <polygon points="272.36,579 262.36,583 272.36,587 268.36,583" fill="#4A463F" stroke="#4A463F" stroke-width="1"/>
    <line x1="266.36" y1="583" x2="400.35" y2="583" stroke="#4A463F" stroke-width="1.10" stroke-dasharray="2,2"/>
    <text x="278.36" y="577.86" font-size="13" fill="#2C2A26" xml:space="preserve" style="white-space: pre" font-family="Inter">Produit mis à jour</text>
    <polygon points="63.94,603 53.94,607 63.94,611 59.94,607" fill="#4A463F" stroke="#4A463F" stroke-width="1"/>
    <line x1="57.94" y1="607" x2="260.36" y2="607" stroke="#4A463F" stroke-width="1.10" stroke-dasharray="2,2"/>
    <text x="69.94" y="601.86" font-size="13" fill="#2C2A26" xml:space="preserve" style="white-space: pre" font-family="Inter">Confirmation</text>
<?plantuml-src hLRDRjj64BxpAGRk8GaGkz6_7A05A4fiNTY9QgKv5BsioP6rCRdBx2wLk4M1ehVU-m2zwjutq9lqIJfSYjAIefe2BK_4VD_yVJExf7xW8cEAfQ1NB9OVkBY79KiqUdgFtB7euLx9NCI1JAI2pqBxE8mObonFJ2Y5USLIX2jXKBNZ2_uZGgVN3kxYTuEktnqw55yf-M473WQ35ts_2RvPyUX1eDRGkUWuu6rPjXAeOEpOeuHfxHkZ-5rky2gImXRsmbln627YAagmVCSqCu-mv9Z4shMaQ5QIJ8sOy9C7C3cX625InQXsLdzyEHaFzbQd1x8Twr7Q5kOnGSWInaLbsKaAi23PKPh731tliJ-Q3I-Fq7gSlHIEOz_lztj-4oopTO_CjN0tLfmw_M1hndVOjIWBB8Grij9h6WJXnFT-TZH7aQSd90z2Fnmq9Gyk9u7V_q-IpoYbsvbR3YyMVyaY_9_Mm8sTKJHsZsKn2YF3n7s2nuGJgVrm57QQgNUAVbAE_QWEZVTRn77B5TASAcKIZiFkoLASjCFPS3G8QcaxdzH9u_iSnMu4xir1JGnxOMMitnW0rto9rrnWSrsc_jX5JuvqpfJX4S-OCF-ErBe23g5j6nlmuUGtWVhXZkWC7HSr33kpyHvkBST2RONiWKC9Nr7mxFJUbN1jueDWvCygg6tRBF0rClAfvwBqVCqCb-8uONSsdJKuhJV0bA_fDc_HfJERJ4E7q5hp3cohse4E5T_Gfj7XTFWzlpVe5g5kKMTIQ3ocZFnHTzYp6_znpkAu-3ft-_LnL_R-c4x14_Z2UI2utlxsUhxzzStj3FxwvNTOR3VbsNWEgOpvaaTM7uYVv08o9UEScre42gZP6kS559b2KMAZABmHjfkOMyDBM6ytoWcNWzh-cU1pSb-pXCVMJ3cv9gy_u9tC5HZ5X6Osei0amGlFOyLImPaVfrnmJGI3kJe3fi6QlEpGDPnTLLVj3-BfA_neBjxfPvRxtLMTk42rfgz_MRosb8LVfoJyxdEMcrMPYrxgy5ngSwzmyUsr9KmddcSBWlClAHkr_pfVAuI4qMz2jC9AIOymOamdn0XMJD7LdA26c1hURegNVCyapdaLREvuawtCz1B2MkXw_Xixp39yj69ffW4DQ9dJJygkYeLFlADPUcGkSb3B1ByjfrZ4AGVeMU2yShyjRC3iB4f7QtvRZDWwBQLASxfqI8odtylu6OqqCLL3nSUHpjcQtL5WA5ptBS-KeacJiT5pcoVIp-aUiERjPXTkfpNzJkotB3b81Y0pGpz1CdhORRzrhBb-Gpw2sj6sdPI2Ougq0jIUBXo9ZoB-ftGq04a7J0bTPrKYCNVn6p9KNT4vgI8UQn98iUGgjKVAesB-1W00?>
  </g>
</g>
<rect x="2258.9425770308126" y="280" width="1150" height="838" rx="24" fill="#FAF7F1" stroke="#DCCFBA" stroke-width="1.5"/>
<text x="2322.9425770308126" y="384" font-family="Inter" font-size="27" font-weight="600" letter-spacing="3" fill="#4A443A">LÉGENDE</text>
<line x1="2322.9425770308126" y1="462" x2="2448.9425770308126" y2="462" stroke="#4A463F" stroke-width="2.5"/>
<path d="M 2462.9425770308126 462 L 2444.9425770308126 454 L 2444.9425770308126 470 Z" fill="#4A463F"/>
<text x="2492.9425770308126" y="471" font-family="Inter" font-size="25" fill="#4A443A">Appel</text>
<line x1="2322.9425770308126" y1="536" x2="2448.9425770308126" y2="536" stroke="#7A7263" stroke-width="2.5" stroke-dasharray="10,7"/>
<path d="M 2462.9425770308126 536 L 2444.9425770308126 528 M 2462.9425770308126 536 L 2444.9425770308126 544" stroke="#7A7263" stroke-width="2.5" fill="none"/>
<text x="2492.9425770308126" y="545" font-family="Inter" font-size="25" fill="#4A443A">Retour</text>
<rect x="2322.9425770308126" y="591" width="86" height="38" rx="8" fill="#F6F1E8" stroke="#D5C7AE" stroke-width="1.5"/>
<text x="2365.9425770308126" y="618" font-family="Inter" font-size="21" font-weight="600" fill="#4A443A" text-anchor="middle">alt</text>
<text x="2492.9425770308126" y="619" font-family="Inter" font-size="25" fill="#4A443A">Condition</text>
<rect x="2322.9425770308126" y="665" width="86" height="38" rx="8" fill="#F6F1E8" stroke="#D5C7AE" stroke-width="1.5"/>
<text x="2365.9425770308126" y="692" font-family="Inter" font-size="21" font-weight="600" fill="#4A443A" text-anchor="middle">opt</text>
<text x="2492.9425770308126" y="693" font-family="Inter" font-size="25" fill="#4A443A">Optionnel</text>
<text x="2322.9425770308126" y="800" font-family="Inter" font-size="27" font-weight="600" letter-spacing="3" fill="#4A443A">POINTS CLÉS</text>
<rect x="2322.9425770308126" y="849" width="12" height="12" rx="2.5" fill="#5B7C99"/>
<text x="2354.9425770308126" y="866" font-family="Inter" font-size="25" fill="#4A443A">Charge puis mise à jour (transaction)</text>
<rect x="2322.9425770308126" y="905" width="12" height="12" rx="2.5" fill="#5B7C99"/>
<text x="2354.9425770308126" y="922" font-family="Inter" font-size="25" fill="#4A443A">alt : produit introuvable</text>
<rect x="2322.9425770308126" y="961" width="12" height="12" rx="2.5" fill="#5B7C99"/>
<text x="2354.9425770308126" y="978" font-family="Inter" font-size="25" fill="#4A443A">opt : mouvement de stock</text>
<line x1="120" y1="2064" x2="3720" y2="2064" stroke="#E8E0D2" stroke-width="1.5"/>
<text x="1920.0" y="2116" font-family="Inter" font-size="26" fill="#9A8F7D" text-anchor="middle">Charge puis mise à jour (transaction)    ·    alt : produit introuvable    ·    opt : mouvement de stock</text>
</svg>