<svg xmlns="http://www.w3.org/2000/svg" version="1.1" viewBox="0 0 3840 2160" width="3840" height="2160">
<rect x="0" y="0" width="3840" height="2160" fill="#FFFFFF"/>
<text x="1920.0" y="118" font-family="Inter" font-size="56" font-weight="600" fill="#2C2A26" text-anchor="middle">Diagramme de séquence – Ajout d’un produit</text>
<text x="1920.0" y="172" font-family="Inter" font-size="24" font-weight="500" letter-spacing="7" fill="#9A8F7D" text-anchor="middle">CLÉOPÂTRE · ESPACE SANTÉ BEAUTÉ</text>
<rect x="1855.0" y="196" width="130" height="5" rx="2.5" fill="#5B7C99"/>
<g transform="translate(308.7,280.0) scale(2.4750)">
<defs/>
  <g>
    <rect x="36.94" y="250" width="741.36" height="350" rx="4" ry="4" fill="#FAF7F1" stroke="#FAF7F1" stroke-width="1"/>
    <rect x="36.94" y="250" width="741.36" height="350" rx="4" ry="4" fill="#00000000" stroke="#D5C7AE" stroke-width="1.50"/>
    <rect x="469.12" y="397" width="284.18" height="48" rx="4" ry="4" fill="#FAF7F1" stroke="#FAF7F1" stroke-width="1"/>
    <rect x="469.12" y="397" width="284.18" height="48" rx="4" ry="4" fill="#00000000" stroke="#D5C7AE" stroke-width="1.50"/>
    <rect x="469.12" y="463" width="284.18" height="48" rx="4" ry="4" fill="#FAF7F1" stroke="#FAF7F1" stroke-width="1"/>
    <rect x="469.12" y="463" width="284.18" height="48" rx="4" ry="4" fill="#00000000" stroke="#D5C7AE" stroke-width="1.50"/>
    <g>
      <title/>
      <rect x="49.44" y="75" width="8" height="549" fill="#00000000" stroke="#00000000" stroke-width="0"/>
      <line x1="52.94" y1="75" x2="52.94" y2="624" stroke="#C9BDA8" stroke-width="0.50" stroke-dasharray="5,5"/>
    </g>
    <g>
      <title/>
      <rect x="331.18" y="75" width="8" height="549" fill="#00000000" stroke="#00000000" stroke-width="0"/>
      <line x1="334.68" y1="75" x2="334.68" y2="624" stroke="#C9BDA8" stroke-width="0.50" stroke-dasharray="5,5"/>
    </g>
    <g>
      <title/>
      <rect x="481.62" y="75" width="8" height="549" fill="#00000000" stroke="#00000000" stroke-width="0"/>
      <line x1="485.12" y1="75" x2="485.12" y2="624" stroke="#C9BDA8" stroke-width="0.50" stroke-dasharray="5,5"/>
    </g>
    <g>
      <title/>
      <rect x="650.43" y="75" width="8" height="549" fill="#00000000" stroke="#00000000" stroke-width="0"/>
      <line x1="653.93" y1="75" x2="653.93" y2="624" stroke="#C9BDA8" stroke-width="0.50" stroke-dasharray="5,5"/>
    </g>
    <g>
      <title/>
      <rect x="733.80" y="75" width="8" height="549" fill="#00000000" stroke="#00000000" stroke-width="0"/>
      <line x1="737.30" y1="75" x2="737.30" y2="624" stroke="#C9BDA8" stroke-width="0.50" stroke-dasharray="5,5"/>
    </g>
    <text x="5" y="71.86" font-size="13" fill="#2C2A26" xml:space="preserve" style="white-space: pre" font-family="Inter">Administrateur</text>
    <circle cx="52.94" cy="13.50" r="8" fill="#F6F1E8" stroke="#A89B85" stroke-width="0.50"/>
    <path d="M52.94,21.50 L52.94,48.50 M39.94,29.50 L65.94,29.50 M52.94,48.50 L39.94,63.50 M52.94,48.50 L65.94,63.50" fill="#00000000" stroke="#A89B85" stroke-width="0.50"/>
    <rect x="300.23" y="36" width="68.89" height="38" rx="4" ry="4" fill="#FFFFFF" stroke="#A89B85" stroke-width="0.50"/>
    <text x="307.23" y="48.86" font-size="13" fill="#2C2A26" xml:space="preserve" style="white-space: pre" font-family="Inter">Interface</text>
    <text x="308.72" y="63.86" font-size="13" fill="#2C2A26" xml:space="preserve" style="white-space: pre" font-family="Inter">(Next.js)</text>
    <rect x="432.95" y="50" width="104.33" height="24" rx="4" ry="4" fill="#FFFFFF" stroke="#A89B85" stroke-width="0.50"/>
    <text x="439.95" y="63.86" font-size="13" fill="#2C2A26" xml:space="preserve" style="white-space: pre" font-family="Inter">Server Actions</text>
    <rect x="623.99" y="49" width="59.87" height="25" rx="4" ry="4" fill="#FFFFFF" stroke="#A89B85" stroke-width="0.50"/>
    <text x="630.99" y="63.86" font-size="13" fill="#2C2A26" xml:space="preserve" style="white-space: pre" font-family="Inter">lib/auth</text>
    <rect x="693.86" y="48" width="86.88" height="26" rx="4" ry="4" fill="#FFFFFF" stroke="#A89B85" stroke-width="0.50"/>
    <text x="700.86" y="63.86" font-size="13" fill="#2C2A26" xml:space="preserve" style="white-space: pre" font-family="Inter">PostgreSQL</text>
    <text x="5" y="630.86" font-size="13" fill="#2C2A26" xml:space="preserve" style="white-space: pre" font-family="Inter">Administrateur</text>
    <circle cx="52.94" cy="642.50" r="8" fill="#F6F1E8" stroke="#A89B85" stroke-width="0.50"/>
    <path d="M52.94,650.50 L52.94,677.50 M39.94,658.50 L65.94,658.50 M52.94,677.50 L39.94,692.50 M52.94,677.50 L65.94,692.50" fill="#00000000" stroke="#A89B85" stroke-width="0.50"/>
    <rect x="300.23" y="624" width="68.89" height="38" rx="4" ry="4" fill="#FFFFFF" stroke="#A89B85" stroke-width="0.50"/>
    <text x="307.23" y="636.86" font-size="13" fill="#2C2A26" xml:space="preserve" style="white-space: pre" font-family="Inter">Interface</text>
    <text x="308.72" y="651.86" font-size="13" fill="#2C2A26" xml:space="preserve" style="white-space: pre" font-family="Inter">(Next.js)</text>
    <rect x="432.95" y="624" width="104.33" height="24" rx="4" ry="4" fill="#FFFFFF" stroke="#A89B85" stroke-width="0.50"/>
    <text x="439.95" y="637.86" font-size="13" fill="#2C2A26" xml:space="preserve" style="white-space: pre" font-family="Inter">Server Actions</text>
    <rect x="623.99" y="624" width="59.87" height="25" rx="4" ry="4" fill="#FFFFFF" stroke="#A89B85" stroke-width="0.50"/>
    <text x="630.99" y="638.86" font-size="13" fill="#2C2A26" xml:space="preserve" style="white-space: pre" font-family="Inter">lib/auth</text>
    <rect x="693.86" y="624" width="86.88" height="26" rx="4" ry="4" fill="#FFFFFF" stroke="#A89B85" stroke-width="0.50"/>
    <text x="700.86" y="639.86" font-size="13" fill="#2C2A26" xml:space="preserve" style="white-space: pre" font-family="Inter">PostgreSQL</text>
    <polygon points="322.68,98 332.68,102 322.68,106 326.68,102" fill="#4A463F" stroke="#4A463F" stroke-width="1"/>
    <line x1="52.94" y1="102" x2="328.68" y2="102" stroke="#4A463F" stroke-width="1.10"/>
    <text x="59.94" y="96.86" font-size="13" fill="#2C2A26" xml:space="preserve" style="white-space: pre" font-family="Inter">Renseigne le formulaire (nouveau produit)</text>
    <polygon points="322.68,122 332.68,126 322.68,130 326.68,126" fill="#4A463F" stroke="#4A463F" stroke-width="1"/>
    <line x1="52.94" y1="126" x2="328.68" y2="126" stroke="#4A463F" stroke-width="1.10"/>
    <text x="59.94" y="119.86" font-size="13" fill="#2C2A26" xml:space="preserve" style="white-space: pre" font-family="Inter">Soumet</text>
    <polygon points="473.12,146 483.12,150 473.12,154 477.12,150" fill="#4A463F" stroke="#4A463F" stroke-width="1"/>
    <line x1="334.68" y1="150" x2="479.12" y2="150" stroke="#4A463F" stroke-width="1.10"/>
    <text x="341.68" y="144.86" font-size="13" fill="#2C2A26" xml:space="preserve" style="white-space: pre" font-family="Inter">saveProductAction</text>
    <polygon points="641.93,170 651.93,174 641.93,178 645.93,174" fill="#4A463F" stroke="#4A463F" stroke-width="1"/>
    <line x1="485.12" y1="174" x2="647.93" y2="174" stroke="#4A463F" stroke-width="1.10"/>
    <text x="492.12" y="168.86" font-size="13" fill="#2C2A26" xml:space="preserve" style="white-space: pre" font-family="Inter">Vérifie le rôle</text>
    <polygon points="496.12,194 486.12,198 496.12,202 492.12,198" fill="#4A463F" stroke="#4A463F" stroke-width="1"/>
    <line x1="490.12" y1="198" x2="652.93" y2="198" stroke="#4A463F" stroke-width="1.10" stroke-dasharray="2,2"/>
    <text x="502.12" y="192.86" font-size="13" fill="#2C2A26" xml:space="preserve" style="white-space: pre" font-family="Inter">Rôle admin</text>
    <line x1="485.12" y1="225" x2="527.12" y2="225" stroke="#4A463F" stroke-width="1.10"/>
    <line x1="527.12" y1="225" x2="527.12" y2="238" stroke="#4A463F" stroke-width="1.10"/>
    <line x1="486.12" y1="238" x2="527.12" y2="238" stroke="#4A463F" stroke-width="1.10"/>
    <polygon points="496.12,234 486.12,238 496.12,242 492.12,238" fill="#4A463F" stroke="#4A463F" stroke-width="1"/>
    <text x="492.12" y="219.86" font-size="13" fill="#2C2A26" xml:space="preserve" style="white-space: pre" font-family="Inter">Valide le formulaire (Zod)</text>
    <path d="M40.94,250 L97.97,250 L97.97,252 L87.97,262 L36.94,262 L36.94,254 A4,4 0 0 1 40.94,250" fill="#FAF7F1" stroke="#D5C7AE" stroke-width="1.50"/>
    <rect x="36.94" y="250" width="741.36" height="350" rx="4" ry="4" fill="#00000000" stroke="#D5C7AE" stroke-width="1.50"/>
    <text x="51.94" y="256.86" font-size="13" fill="#2C2A26" xml:space="preserve" style="white-space: pre" font-weight="bold" font-family="Inter">alt</text>
    <text x="112.97" y="261.86" font-size="13" fill="#4A443A" xml:space="preserve" style="white-space: pre" font-weight="bold" font-family="Inter">[Formulaire invalide]</text>
    <polygon points="345.68,284 335.68,288 345.68,292 341.68,288" fill="#4A463F" stroke="#4A463F" stroke-width="1"/>
    <line x1="339.68" y1="288" x2="484.12" y2="288" stroke="#4A463F" stroke-width="1.10" stroke-dasharray="2,2"/>
    <text x="351.68" y="282.86" font-size="13" fill="#2C2A26" xml:space="preserve" style="white-space: pre" font-family="Inter">Erreurs de validation</text>
    <polygon points="63.94,311 53.94,315 63.94,319 59.94,315" fill="#4A463F" stroke="#4A463F" stroke-width="1"/>
    <line x1="57.94" y1="315" x2="333.68" y2="315" stroke="#4A463F" stroke-width="1.10" stroke-dasharray="2,2"/>
    <text x="69.94" y="309.86" font-size="13" fill="#2C2A26" xml:space="preserve" style="white-space: pre" font-family="Inter">Corriger le formulaire</text>
    <line x1="36.94" y1="324" x2="778.30" y2="324" stroke="#D5C7AE" stroke-width="1" stroke-dasharray="2,2"/>
    <text x="41.94" y="335.86" font-size="13" fill="#4A443A" xml:space="preserve" style="white-space: pre" font-weight="bold" font-family="Inter">[Formulaire valide]</text>
    <polygon points="725.30,354 735.30,358 725.30,362 729.30,358" fill="#4A463F" stroke="#4A463F" stroke-width="1"/>
    <line x1="485.12" y1="358" x2="731.30" y2="358" stroke="#4A463F" stroke-width="1.10"/>
    <text x="492.12" y="352.86" font-size="13" fill="#2C2A26" xml:space="preserve" style="white-space: pre" font-family="Inter">Ouvre une transaction</text>
    <polygon points="725.30,381 735.30,385 725.30,389 729.30,385" fill="#4A463F" stroke="#4A463F" stroke-width="1"/>
    <line x1="485.12" y1="385" x2="731.30" y2="385" stroke="#4A463F" stroke-width="1.10"/>
    <text x="492.12" y="379.86" font-size="13" fill="#2C2A26" xml:space="preserve" style="white-space: pre" font-family="Inter">Enregistre le produit</text>
    <path d="M473.12,397 L535.05,397 L535.05,401 L525.05,411 L469.12,411 L469.12,401 A4,4 0 0 1 473.12,397" fill="#FAF7F1" stroke="#D5C7AE" stroke-width="1.50"/>
    <rect x="469.12" y="397" width="284.18" height="48" rx="4" ry="4" fill="#00000000" stroke="#D5C7AE" stroke-width="1.50"/>
    <text x="484.12" y="406.86" font-size="13" fill="#2C2A26" xml:space="preserve" style="white-space: pre" font-weight="bold" font-family="Inter">opt</text>
    <text x="550.05" y="408.86" font-size="13" fill="#4A443A" xml:space="preserve" style="white-space: pre" font-weight="bold" font-family="Inter">[Stock initial &gt; 0]</text>
    <polygon points="725.30,433 735.30,437 725.30,441 729.30,437" fill="#4A463F" stroke="#4A463F" stroke-width="1"/>
    <line x1="485.12" y1="437" x2="731.30" y2="437" stroke="#4A463F" stroke-width="1.10"/>
    <text x="492.12" y="431.86" font-size="13" fill="#2C2A26" xml:space="preserve" style="white-space: pre" font-family="Inter">Journalise le mouvement de stock</text>
    <path d="M473.12,463 L535.05,463 L535.05,467 L525.05,477 L469.12,477 L469.12,467 A4,4 0 0 1 473.12,463" fill="#FAF7F1" stroke="#D5C7AE" stroke-width="1.50"/>
    <rect x="469.12" y="463" width="284.18" height="48" rx="4" ry="4" fill="#00000000" stroke="#D5C7AE" stroke-width="1.50"/>
    <text x="484.12" y="472.86" font-size="13" fill="#2C2A26" xml:space="preserve" style="white-space: pre" font-weight="bold" font-family="Inter">opt</text>
    <text x="550.05" y="475.86" font-size="13" fill="#4A443A" xml:space="preserve" style="white-space: pre" font-weight="bold" font-family="Inter">[Concerns renseignés]</text>
    <polygon points="725.30,499 735.30,503 725.30,507 729.30,503" fill="#4A463F" stroke="#4A463F" stroke-width="1"/>
    <line x1="485.12" y1="503" x2="731.30" y2="503" stroke="#4A463F" stroke-width="1.10"/>
    <text x="492.12" y="497.86" font-size="13" fill="#2C2A26" xml:space="preserve" style="white-space: pre" font-family="Inter">Associe les concerns</text>
    <polygon points="725.30,537 735.30,541 725.30,545 729.30,541" fill="#4A463F" stroke="#4A463F" stroke-width="1"/>
    <line x1="485.12" y1="541" x2="731.30" y2="541" stroke="#4A463F" stroke-width="1.10"/>
    <text x="492.12" y="535.86" font-size="13" fill="#2C2A26" xml:space="preserve" style="white-space: pre" font-family="Inter">Valide la transaction</text>
    <polygon points="345.68,561 335.68,565 345.68,569 341.68,565" fill="#4A463F" stroke="#4A463F" stroke-width="1"/>
    <line x1="339.68" y1="565" x2="484.12" y2="565" stroke="#4A463F" stroke-width="1.10" stroke-dasharray="2,2"/>
    <text x="351.68" y="559.86" font-size="13" fill="#2C2A26" xml:space="preserve" style="white-space: pre" font-family="Inter">Produit créé</text>
    <polygon points="63.94,588 53.94,592 63.94,596 59.94,592" fill="#4A463F" stroke="#4A463F" stroke-width="1"/>
    <line x1="57.94" y1="592" x2="333.68" y2="592" stroke="#4A463F" stroke-width="1.10" stroke-dasharray="2,2"/>
    <text x="69.94" y="586.86" font-size="13" fill="#2C2A26" xml:space="preserve" style="white-space: pre" font-family="Inter">Confirmation (fiche produit)</text>
<?plantuml-src hLRDRjj64BxpAGRk8JRWkD6_7A06A8fiNJY9QgKv5BsioP6qCRMhxYwLk460ehVU-nAwzmtq9dsI3bUajAGef42h4p7VDt_VpAvMFtAnOeejGIzO8ZzmCOSPIpLwUeyyiFXnhcGcaa2cKi5NaVqvZ0HdB4jD98LvpPO8jyAWQiQd_5U4LgSPBEAtWxRVxZiKNodveG1xlTwBhby7tovu_2XGQsXTjHpmVbUs4gXWwDZZb6dj6wFuGsRmDfR25lR2M_048UOgJd7tZSkLUO8PnpJHhcM9PY79L8i9dpo0qGd5294gGLLO_U7rQDZRMvqUo7QinyusDKyfmYfbN9IMGbA0AScEqZojqF4U-eEmVts4LkFifN0Sktwts_7hu2vR-yXS2VVAYbEb7spr-0wx4cMAkR16bdgDWo0Q-TvdHtCKsVA4v47aHxswvC7rAF2x_qdoa5AwdRdby7pnPop6_saDtDWhYiRck2j6OMoOcATuJ3YHsey6KQkUkb3qYtBiHtLelDiWZbkkaEPKAQDe6BLFbkAaxOVzGI-ef6rzKIUDlsGeYX6uDmSrqUz4fR5wOm3SyHdUSO7rTHdxGnSzET89KuR7VCM4-NUanXLm24tRM8CF9xyEL0ztJ6VekAX-r0g7UxYn70ir5R873YLyIy5Nf_Tk1rSctWi6VbX2JTjcWU-GaKyr5wNdQsQu5CS9s-4uh74QRu0nNzDjtg1BAnoD8uVGM7C1DbNjG8UANz6cqU5q-1s_qsldeUvHhwJGU4mP-8DslsCt_kE49Kd-xzpkLiTTshj3EWNFu1ld1y7Tzeyta-tlR-z3-FktFs6wtUpEnYMmzp8pa3pB1AoKJ39kAguKIRCrJd8eDhcKKi1BeFz9exP_qMub6TYFIrYpb2TMP_X99fTW51EQMOzB2hEKsHgNA2WPWZOoVWGqUQ0ObT10eMAcORk95ziDjNFbUIpVBJZpaoKNN5CuWvaw0s9PaxSwD0zdj-MD-xCuVuqVpTLxVM6vFzvMYLDKQte4x5hHbZBrgvIKFtpDChFOvQAFAZoHsimLJd-uiuJnoFDiGV3yXhAHElT8K-HpWNbNCwcM6Hr0XN0kSWrOLYfzKVERoenU4nvzasNga-L8Uu_C1EP54Vnkkr6SdYHv7Zi5pmBFI_TxEo9crIeyhVrTFggZwcXg5wHwQkYQtLkvi7F5_6_Ojv5jgQ5ID0oTp_8mT-BajUVrsRvU0hsu59-Jt9LK7jB3qarIIN53YfBhcsnDI4OYEejKfOH2uJpV3DjA8IfHvChG8oVVC5eSmraAD_IY0wWuVoyp9IYljix7sqby54aHBIZNL1MZtMvqFQ2ljOpjBFH-hVT175ufFcjeh9HtKXp5M6qtsqsJhcB6rN9tsivdF5xWOQaeupy0?>
  </g>
</g>
<rect x="2381.3233190271817" y="280" width="1150" height="838" rx="24" fill="#FAF7F1" stroke="#DCCFBA" stroke-width="1.5"/>
<text x="2445.3233190271817" y="384" font-family="Inter" font-size="27" font-weight="600" letter-spacing="3" fill="#4A443A">LÉGENDE</text>
<line x1="2445.3233190271817" y1="462" x2="2571.3233190271817" y2="462" stroke="#4A463F" stroke-width="2.5"/>
<path d="M 2585.3233190271817 462 L 2567.3233190271817 454 L 2567.3233190271817 470 Z" fill="#4A463F"/>
<text x="2615.3233190271817" y="471" font-family="Inter" font-size="25" fill="#4A443A">Appel</text>
<line x1="2445.3233190271817" y1="536" x2="2571.3233190271817" y2="536" stroke="#7A7263" stroke-width="2.5" stroke-dasharray="10,7"/>
<path d="M 2585.3233190271817 536 L 2567.3233190271817 528 M 2585.3233190271817 536 L 2567.3233190271817 544" stroke="#7A7263" stroke-width="2.5" fill="none"/>
<text x="2615.3233190271817" y="545" font-family="Inter" font-size="25" fill="#4A443A">Retour</text>
<rect x="2445.3233190271817" y="591" width="86" height="38" rx="8" fill="#F6F1E8" stroke="#D5C7AE" stroke-width="1.5"/>
<text x="2488.3233190271817" y="618" font-family="Inter" font-size="21" font-weight="600" fill="#4A443A" text-anchor="middle">alt</text>
<text x="2615.3233190271817" y="619" font-family="Inter" font-size="25" fill="#4A443A">Condition</text>
<rect x="2445.3233190271817" y="665" width="86" height="38" rx="8" fill="#F6F1E8" stroke="#D5C7AE" stroke-width="1.5"/>
<text x="2488.3233190271817" y="692" font-family="Inter" font-size="21" font-weight="600" fill="#4A443A" text-anchor="middle">opt</text>
<text x="2615.3233190271817" y="693" font-family="Inter" font-size="25" fill="#4A443A">Optionnel</text>
<text x="2445.3233190271817" y="800" font-family="Inter" font-size="27" font-weight="600" letter-spacing="3" fill="#4A443A">POINTS CLÉS</text>
<rect x="2445.3233190271817" y="849" width="12" height="12" rx="2.5" fill="#5B7C99"/>
<text x="2477.3233190271817" y="866" font-family="Inter" font-size="25" fill="#4A443A">Rôle admin vérifié (lib/auth)</text>
<rect x="2445.3233190271817" y="905" width="12" height="12" rx="2.5" fill="#5B7C99"/>
<text x="2477.3233190271817" y="922" font-family="Inter" font-size="25" fill="#4A443A">Validation Zod avant écriture</text>
<rect x="2445.3233190271817" y="961" width="12" height="12" rx="2.5" fill="#5B7C99"/>
<text x="2477.3233190271817" y="978" font-family="Inter" font-size="25" fill="#4A443A">opt : mouvement de stock · concerns</text>
<line x1="120" y1="2064" x2="3720" y2="2064" stroke="#E8E0D2" stroke-width="1.5"/>
<text x="1920.0" y="2116" font-family="Inter" font-size="26" fill="#9A8F7D" text-anchor="middle">Rôle admin vérifié (lib/auth)    ·    Validation Zod avant écriture    ·    opt : mouvement de stock · concerns</text>
</svg>