<svg xmlns="http://www.w3.org/2000/svg" xmlns:xlink="http://www.w3.org/1999/xlink" contentStyleType="text/css" height="669px" preserveAspectRatio="none" style="width:608px;height:669px;background:#FFFFFF;" version="1.1" viewBox="0 0 608 669" width="608px" zoomAndPan="magnify"><defs/><g><line style="stroke:#8A857C;stroke-width:0.5;stroke-dasharray:5.0,5.0;" x1="53" x2="53" y1="80.7295" y2="662.8213"/><line style="stroke:#8A857C;stroke-width:0.5;stroke-dasharray:5.0,5.0;" x1="190.6667" x2="190.6667" y1="80.7295" y2="662.8213"/><line style="stroke:#8A857C;stroke-width:0.5;stroke-dasharray:5.0,5.0;" x1="341.0444" x2="341.0444" y1="80.7295" y2="662.8213"/><line style="stroke:#8A857C;stroke-width:0.5;stroke-dasharray:5.0,5.0;" x1="434.8972" x2="434.8972" y1="80.7295" y2="662.8213"/><line style="stroke:#8A857C;stroke-width:0.5;stroke-dasharray:5.0,5.0;" x1="551.9294" x2="551.9294" y1="80.7295" y2="662.8213"/><text fill="#2C2A26" font-family="Inter" font-size="13" lengthAdjust="spacing" textLength="90.0161" x="5" y="77.5938">Administrateur</text><ellipse cx="53.0081" cy="13.5" fill="#F8F5F0" rx="8" ry="8" style="stroke:#2C2A26;stroke-width:0.5;"/><path d="M53.0081,21.5 L53.0081,48.5 M40.0081,29.5 L66.0081,29.5 M53.0081,48.5 L40.0081,63.5 M53.0081,48.5 L66.0081,63.5 " fill="none" style="stroke:#2C2A26;stroke-width:0.5;"/><rect fill="#FFFFFF" height="45.459" rx="2.5" ry="2.5" style="stroke:#2C2A26;stroke-width:0.5;" width="85.9189" x="148.6667" y="34.2705"/><text fill="#2C2A26" font-family="Inter" font-size="13" lengthAdjust="spacing" textLength="71.9189" x="155.6667" y="53.8643">Back-office</text><text fill="#2C2A26" font-family="Inter" font-size="13" lengthAdjust="spacing" textLength="42.1611" x="170.5457" y="69.5938">/admin</text><rect fill="#FFFFFF" height="45.459" rx="2.5" ry="2.5" style="stroke:#2C2A26;stroke-width:0.5;" width="104.3843" x="289.0444" y="34.2705"/><text fill="#2C2A26" font-family="Inter" font-size="13" lengthAdjust="spacing" textLength="90.3843" x="296.0444" y="53.8643">Server Actions</text><text fill="#2C2A26" font-family="Inter" font-size="13" lengthAdjust="spacing" textLength="52.3364" x="315.0684" y="69.5938">admin.ts</text><rect fill="#FFFFFF" height="29.7295" rx="2.5" ry="2.5" style="stroke:#2C2A26;stroke-width:0.5;" width="59.8682" x="405.8972" y="50"/><text fill="#2C2A26" font-family="Inter" font-size="13" lengthAdjust="spacing" textLength="45.8682" x="412.8972" y="69.5938">lib/auth</text><rect fill="#FFFFFF" height="29.7295" rx="2.5" ry="2.5" style="stroke:#2C2A26;stroke-width:0.5;" width="87.29" x="508.9294" y="50"/><text fill="#2C2A26" font-family="Inter" font-size="13" lengthAdjust="spacing" textLength="73.29" x="515.9294" y="69.5938">PostgreSQL</text><polygon fill="#2C2A26" points="179.6262,109.6689,189.6262,113.6689,179.6262,117.6689" style="stroke:#2C2A26;stroke-width:1;"/><line style="stroke:#2C2A26;stroke-width:1.4;" x1="53.0081" x2="185.6262" y1="113.6689" y2="113.6689"/><text fill="#2C2A26" font-family="Inter" font-size="14" lengthAdjust="spacing" textLength="104.8975" x="60.0081" y="108.292">/admin/produits</text><polygon fill="#2C2A26" points="423.8313,140.6084,433.8313,144.6084,423.8313,148.6084" style="stroke:#2C2A26;stroke-width:1;"/><line style="stroke:#2C2A26;stroke-width:1.4;" x1="191.6262" x2="429.8313" y1="144.6084" y2="144.6084"/><text fill="#2C2A26" font-family="Inter" font-size="14" lengthAdjust="spacing" textLength="89.2637" x="198.6262" y="139.2314">requireAdmin</text><polygon fill="#2C2A26" points="540.5745,171.5479,550.5745,175.5479,540.5745,179.5479" style="stroke:#2C2A26;stroke-width:1;"/><line style="stroke:#2C2A26;stroke-width:1.4;" x1="435.8313" x2="546.5745" y1="175.5479" y2="175.5479"/><text fill="#2C2A26" font-family="Inter" font-size="14" lengthAdjust="spacing" textLength="50.3877" x="442.8313" y="170.1709">session</text><text fill="#2C2A26" font-family="Inter" font-size="14" lengthAdjust="spacing" textLength="3.9375" x="493.219" y="170.1709">&#160;</text><text fill="#2C2A26" font-family="Inter" font-size="14" lengthAdjust="spacing" textLength="9.2627" x="497.1565" y="170.1709">+</text><text fill="#2C2A26" font-family="Inter" font-size="14" lengthAdjust="spacing" textLength="3.9375" x="506.4192" y="170.1709">&#160;</text><text fill="#2C2A26" font-family="Inter" font-size="14" lengthAdjust="spacing" textLength="25.2178" x="510.3567" y="170.1709">r&#244;le</text><polygon fill="#2C2A26" points="202.6262,185.5479,192.6262,189.5479,202.6262,193.5479" style="stroke:#2C2A26;stroke-width:1;"/><line style="stroke:#2C2A26;stroke-width:1.4;stroke-dasharray:2.0,2.0;" x1="196.6262" x2="434.8313" y1="189.5479" y2="189.5479"/><polygon fill="#2C2A26" points="540.5745,216.4873,550.5745,220.4873,540.5745,224.4873" style="stroke:#2C2A26;stroke-width:1;"/><line style="stroke:#2C2A26;stroke-width:1.4;" x1="191.6262" x2="546.5745" y1="220.4873" y2="220.4873"/><text fill="#2C2A26" font-family="Inter" font-size="14" lengthAdjust="spacing" textLength="52.9922" x="198.6262" y="215.1104">SELECT</text><text fill="#2C2A26" font-family="Inter" font-size="14" lengthAdjust="spacing" textLength="3.9375" x="251.6184" y="215.1104">&#160;</text><text fill="#2C2A26" font-family="Inter" font-size="14" lengthAdjust="spacing" textLength="59.0557" x="255.5559" y="215.1104">products</text><polygon fill="#2C2A26" points="202.6262,230.4873,192.6262,234.4873,202.6262,238.4873" style="stroke:#2C2A26;stroke-width:1;"/><line style="stroke:#2C2A26;stroke-width:1.4;stroke-dasharray:2.0,2.0;" x1="196.6262" x2="551.5745" y1="234.4873" y2="234.4873"/><polygon fill="#2C2A26" points="64.0081,261.4268,54.0081,265.4268,64.0081,269.4268" style="stroke:#2C2A26;stroke-width:1;"/><line style="stroke:#2C2A26;stroke-width:1.4;stroke-dasharray:2.0,2.0;" x1="58.0081" x2="190.6262" y1="265.4268" y2="265.4268"/><text fill="#2C2A26" font-family="Inter" font-size="14" lengthAdjust="spacing" textLength="37.0234" x="70.0081" y="260.0498">Table</text><rect fill="#EEEEEE" height="3" style="stroke:#EEEEEE;stroke-width:1;" width="601.2195" x="0" y="294.8965"/><line style="stroke:#000000;stroke-width:1;" x1="0" x2="601.2195" y1="294.8965" y2="294.8965"/><line style="stroke:#000000;stroke-width:1;" x1="0" x2="601.2195" y1="297.8965" y2="297.8965"/><rect fill="#EEEEEE" height="24.9395" style="stroke:#000000;stroke-width:2;" width="139.0293" x="231.0951" y="283.4268"/><text fill="#2C2A26" font-family="Inter" font-size="14" font-weight="bold" lengthAdjust="spacing" textLength="121.0918" x="237.0951" y="300.9893">Cr&#233;ation / &#201;dition</text><polygon fill="#2C2A26" points="179.6262,337.3057,189.6262,341.3057,179.6262,345.3057" style="stroke:#2C2A26;stroke-width:1;"/><line style="stroke:#2C2A26;stroke-width:1.4;" x1="53.0081" x2="185.6262" y1="341.3057" y2="341.3057"/><text fill="#2C2A26" font-family="Inter" font-size="14" lengthAdjust="spacing" textLength="70.5469" x="60.0081" y="335.9287">Formulaire</text><polygon fill="#2C2A26" points="329.2366,368.2451,339.2366,372.2451,329.2366,376.2451" style="stroke:#2C2A26;stroke-width:1;"/><line style="stroke:#2C2A26;stroke-width:1.4;" x1="191.6262" x2="335.2366" y1="372.2451" y2="372.2451"/><text fill="#2C2A26" font-family="Inter" font-size="14" lengthAdjust="spacing" textLength="125.6104" x="198.6262" y="366.8682">saveProductAction</text><polygon fill="#2C2A26" points="423.8313,399.1846,433.8313,403.1846,423.8313,407.1846" style="stroke:#2C2A26;stroke-width:1;"/><line style="stroke:#2C2A26;stroke-width:1.4;" x1="341.2366" x2="429.8313" y1="403.1846" y2="403.1846"/><text fill="#2C2A26" font-family="Inter" font-size="14" lengthAdjust="spacing" textLength="70.5947" x="348.2366" y="397.8076">adminOnly</text><polygon fill="#2C2A26" points="540.5745,447.0635,550.5745,451.0635,540.5745,455.0635" style="stroke:#2C2A26;stroke-width:1;"/><line style="stroke:#2C2A26;stroke-width:1.4;" x1="341.2366" x2="546.5745" y1="451.0635" y2="451.0635"/><text fill="#2C2A26" font-family="Inter" font-size="14" lengthAdjust="spacing" textLength="49.752" x="348.2366" y="428.7471">INSERT</text><text fill="#2C2A26" font-family="Inter" font-size="14" lengthAdjust="spacing" textLength="3.9375" x="397.9885" y="428.7471">&#160;</text><text fill="#2C2A26" font-family="Inter" font-size="14" lengthAdjust="spacing" textLength="5.0449" x="401.926" y="428.7471">/</text><text fill="#2C2A26" font-family="Inter" font-size="14" lengthAdjust="spacing" textLength="3.9375" x="406.9709" y="428.7471">&#160;</text><text fill="#2C2A26" font-family="Inter" font-size="14" lengthAdjust="spacing" textLength="56.5742" x="410.9084" y="428.7471">UPDATE</text><text fill="#2C2A26" font-family="Inter" font-size="14" lengthAdjust="spacing" textLength="9.2627" x="348.2366" y="445.6865">+</text><text fill="#2C2A26" font-family="Inter" font-size="14" lengthAdjust="spacing" textLength="3.9375" x="357.4993" y="445.6865">&#160;</text><text fill="#2C2A26" font-family="Inter" font-size="14" lengthAdjust="spacing" textLength="77.3555" x="361.4368" y="445.6865">movements</text><polygon fill="#2C2A26" points="202.6262,461.0635,192.6262,465.0635,202.6262,469.0635" style="stroke:#2C2A26;stroke-width:1;"/><line style="stroke:#2C2A26;stroke-width:1.4;stroke-dasharray:2.0,2.0;" x1="196.6262" x2="340.2366" y1="465.0635" y2="465.0635"/><polygon fill="#2C2A26" points="64.0081,475.0635,54.0081,479.0635,64.0081,483.0635" style="stroke:#2C2A26;stroke-width:1;"/><line style="stroke:#2C2A26;stroke-width:1.4;stroke-dasharray:2.0,2.0;" x1="58.0081" x2="190.6262" y1="479.0635" y2="479.0635"/><rect fill="#EEEEEE" height="3" style="stroke:#EEEEEE;stroke-width:1;" width="601.2195" x="0" y="508.5332"/><line style="stroke:#000000;stroke-width:1;" x1="0" x2="601.2195" y1="508.5332" y2="508.5332"/><line style="stroke:#000000;stroke-width:1;" x1="0" x2="601.2195" y1="511.5332" y2="511.5332"/><rect fill="#EEEEEE" height="24.9395" style="stroke:#000000;stroke-width:2;" width="88.9492" x="256.1351" y="497.0635"/><text fill="#2C2A26" font-family="Inter" font-size="14" font-weight="bold" lengthAdjust="spacing" textLength="71.0117" x="262.1351" y="514.626">Archivage</text><polygon fill="#2C2A26" points="179.6262,550.9424,189.6262,554.9424,179.6262,558.9424" style="stroke:#2C2A26;stroke-width:1;"/><line style="stroke:#2C2A26;stroke-width:1.4;" x1="53.0081" x2="185.6262" y1="554.9424" y2="554.9424"/><text fill="#2C2A26" font-family="Inter" font-size="14" lengthAdjust="spacing" textLength="40.0791" x="60.0081" y="549.5654">status</text><text fill="#2C2A26" font-family="Inter" font-size="14" lengthAdjust="spacing" textLength="3.9375" x="100.0872" y="549.5654">&#160;</text><text fill="#2C2A26" font-family="Inter" font-size="14" lengthAdjust="spacing" textLength="9.2627" x="104.0247" y="549.5654">=</text><text fill="#2C2A26" font-family="Inter" font-size="14" lengthAdjust="spacing" textLength="3.9375" x="113.2874" y="549.5654">&#160;</text><text fill="#2C2A26" font-family="Inter" font-size="14" lengthAdjust="spacing" textLength="57.4014" x="117.2249" y="549.5654">archived</text><polygon fill="#2C2A26" points="329.2366,581.8818,339.2366,585.8818,329.2366,589.8818" style="stroke:#2C2A26;stroke-width:1;"/><line style="stroke:#2C2A26;stroke-width:1.4;" x1="191.6262" x2="335.2366" y1="585.8818" y2="585.8818"/><text fill="#2C2A26" font-family="Inter" font-size="14" lengthAdjust="spacing" textLength="125.6104" x="198.6262" y="580.5049">saveProductAction</text><polygon fill="#2C2A26" points="540.5745,612.8213,550.5745,616.8213,540.5745,620.8213" style="stroke:#2C2A26;stroke-width:1;"/><line style="stroke:#2C2A26;stroke-width:1.4;" x1="341.2366" x2="546.5745" y1="616.8213" y2="616.8213"/><text fill="#2C2A26" font-family="Inter" font-size="14" lengthAdjust="spacing" textLength="56.5742" x="348.2366" y="611.4443">UPDATE</text><text fill="#2C2A26" font-family="Inter" font-size="14" lengthAdjust="spacing" textLength="3.9375" x="404.8108" y="611.4443">&#160;</text><text fill="#2C2A26" font-family="Inter" font-size="14" lengthAdjust="spacing" textLength="40.0791" x="408.7483" y="611.4443">status</text><polygon fill="#2C2A26" points="202.6262,626.8213,192.6262,630.8213,202.6262,634.8213" style="stroke:#2C2A26;stroke-width:1;"/><line style="stroke:#2C2A26;stroke-width:1.4;stroke-dasharray:2.0,2.0;" x1="196.6262" x2="340.2366" y1="630.8213" y2="630.8213"/><polygon fill="#2C2A26" points="64.0081,640.8213,54.0081,644.8213,64.0081,648.8213" style="stroke:#2C2A26;stroke-width:1;"/><line style="stroke:#2C2A26;stroke-width:1.4;stroke-dasharray:2.0,2.0;" x1="58.0081" x2="190.6262" y1="644.8213" y2="644.8213"/><!--SRC=[ZPB1Rjf048RlVeeHFKO9X2GjYUHAjZ4L4arfJMvS5dk05VOktLsJ9c_GH-czRy2BTRosYeaDBPAHDVFf__-PiTvmiMMAPR1WyMQbP2wIGAPImRkH_JdwBw7NB97FNAnWoLADjKw2IvQdPYI5UMGPmbWOLEtzYByYND-sDoldVj3t-kzhY1SRgVn6mC7eRjHhO58bgCug7NBSr5fJfWoF-PO9u_zp5tNuh64DRBUDy7kE8iO9Nz8Zy4Xku0tkFWGjjAUKV3xbUGJDrZpU2DGQhgzkMw1FDEUsER1NRFSaNiyOtFk3-pSxvZjck1HDsLxeXpVjx5dDZFtuJ3Em5TeDzdlrkslpaYBzAnwRF4iTXnLNXewNP5nmgZE3kUe0qs1BplPm5EWK8I_bSibZd8ikAm2BFesFkGZL3fLDB8MU2qjU6MtXo3k6KxxeijoiIrDwEMvFfJOhXT7NYGM6lkFOP73vaNpX0SeStQsIISwDTgX8hKA8cefkmHMMizWQzOO-TJJjYDB11QZzxnIhfXLrAWtBHU4a36PWvMEIfs955L3XPDCym8mjICPnNGZK_fSz57HX_pFXzjLrt-GUIPNbAQDqbLta5R7O3gUbLxa-Xyg7UUoiNqJwKfLjnF5Z57wRaTdJTEZDmhcuW4pkC4D1UGkkcTVcz5IyfazgXSrmsZ2JQt21MGQJ_ybemvGPAe5Jxdy0]--></g></svg>